<svg width="378" height="244" viewBox="0 0 378 244" version="1.1" xmlns="http://www.w3.org/2000/svg" xmlns:xlink="http://www.w3.org/1999/xlink">
<g id="Canvas" fill="none">
<g id="Group 2">
<g id="4">
<path d="M 86.4 167.4L 86.4 240L 105.9 240L 105.9 0L 86.4 0L 0 148.8L 0 167.4L 86.4 167.4ZM 86.4 39L 86.4 148.8L 22.5 148.8L 86.4 39Z" transform="translate(0.84082 3.50391)" fill="#28304A"/>
</g>
<g id="4_2">
<path d="M 86.4 167.4L 86.4 240L 105.9 240L 105.9 0L 86.4 0L 0 148.8L 0 167.4L 86.4 167.4ZM 86.4 39L 86.4 148.8L 22.5 148.8L 86.4 39Z" transform="translate(271.458 3.50391)" fill="#28304A"/>
</g>
<g id="0">
<path d="M 0 188.4C 0 203.7 5.4 216.6 15.9 227.1C 26.4 237.6 39.3 243 54.6 243C 69.9 243 82.8 237.6 93.3 227.1C 103.8 216.6 109.2 203.7 109.2 188.4L 109.2 54.6C 109.2 39.3 103.8 26.4 93.3 15.9C 82.8 5.4 69.9 0 54.6 0C 39.3 0 26.4 5.4 15.9 15.9C 5.4 26.4 0 39.3 0 54.6L 0 188.4ZM 19.2 53.4C 19.2 43.8 22.5 35.7 29.4 28.8C 36.3 21.9 44.7 18.3 54.6 18.3C 64.5 18.3 72.6 21.9 79.5 28.8C 86.4 35.7 89.7 43.8 89.7 53.4L 89.7 189.6C 89.7 209.1 74.1 224.7 54.6 224.7C 35.1 224.7 19.2 209.1 19.2 189.6L 19.2 53.4Z" transform="translate(139.788 0.503906)" fill="#28304A"/>
</g>
</g>
</g>
</svg>

