<svg width="160" height="35" viewBox="0 0 160 35" version="1.1" xmlns="http://www.w3.org/2000/svg" xmlns:xlink="http://www.w3.org/1999/xlink">
<g id="Canvas" fill="none">
<g id="BB Group">
<path d="M 11.4847 0.372765C 14.526 0.372765 16.8987 0.964455 18.6027 2.14784C 20.3068 3.33122 21.1588 5.10037 21.1588 7.4553C 21.1588 8.65051 20.8393 9.72147 20.2003 10.6682C 19.5731 11.603 18.656 12.3072 17.4489 12.7805C 18.9992 13.1119 20.1589 13.8219 20.9281 14.9106C 21.7091 15.9993 22.0996 17.2596 22.0996 18.6915C 22.0996 21.1648 21.2831 23.0404 19.65 24.3185C 18.017 25.5847 15.7035 26.2178 12.7095 26.2178L 0 26.2178L 0 23.1114L 2.75136 22.5789L 2.75136 4.02941L 0 3.49689L 0 0.372765L 11.4847 0.372765ZM 7.93457 14.7863L 7.93457 22.2416L 12.7095 22.2416C 14.0822 22.2416 15.1295 21.9458 15.8514 21.3541C 16.5732 20.7506 16.9342 19.863 16.9342 18.6915C 16.9342 17.4253 16.6265 16.4608 16.0111 15.7981C 15.3958 15.1236 14.4254 14.7863 13.1 14.7863L 7.93457 14.7863ZM 7.93457 11.2007L 11.6622 11.2007C 13.0468 11.2007 14.1118 10.9167 14.8573 10.3487C 15.6029 9.78064 15.9756 8.95227 15.9756 7.86356C 15.9756 6.66835 15.597 5.78673 14.8396 5.21871C 14.0941 4.65069 12.9758 4.36667 11.4847 4.36667L 7.93457 4.36667L 7.93457 11.2007Z" transform="translate(0.998047 0.953125)" fill="#28304A"/>
<path d="M 35.5192 0.372765C 38.5605 0.372765 40.9331 0.964455 42.6372 2.14784C 44.3413 3.33122 45.1933 5.10037 45.1933 7.4553C 45.1933 8.65051 44.8738 9.72147 44.2348 10.6682C 43.6076 11.603 42.6905 12.3072 41.4834 12.7805C 43.0336 13.1119 44.1933 13.8219 44.9625 14.9106C 45.7436 15.9993 46.1341 17.2596 46.1341 18.6915C 46.1341 21.1648 45.3176 23.0404 43.6845 24.3185C 42.0514 25.5847 39.7379 26.2178 36.744 26.2178L 24.0345 26.2178L 24.0345 23.1114L 26.7858 22.5789L 26.7858 4.02941L 24.0345 3.49689L 24.0345 0.372765L 35.5192 0.372765ZM 31.969 14.7863L 31.969 22.2416L 36.744 22.2416C 38.1167 22.2416 39.164 21.9458 39.8858 21.3541C 40.6077 20.7506 40.9686 19.863 40.9686 18.6915C 40.9686 17.4253 40.661 16.4608 40.0456 15.7981C 39.4302 15.1236 38.4599 14.7863 37.1345 14.7863L 31.969 14.7863ZM 31.969 11.2007L 35.6967 11.2007C 37.0812 11.2007 38.1463 10.9167 38.8918 10.3487C 39.6373 9.78064 40.0101 8.95227 40.0101 7.86356C 40.0101 6.66835 39.6314 5.78673 38.8741 5.21871C 38.1285 4.65069 37.0102 4.36667 35.5192 4.36667L 31.969 4.36667L 31.969 11.2007Z" transform="translate(0.998047 0.953125)" fill="#28304A"/>
<path d="M 78.4049 23.3422C 77.5647 24.1705 76.3399 24.922 74.7305 25.5965C 73.1211 26.2592 71.0857 26.5906 68.6242 26.5906C 65.1333 26.5906 62.2932 25.4249 60.1039 23.0937C 57.9146 20.7506 56.82 17.7093 56.82 13.9698L 56.82 13.0823C 56.82 9.21262 57.8969 6.06483 60.0506 3.63889C 62.2162 1.21297 65.0386 0 68.5177 0C 70.5413 0 72.3874 0.32543 74.056 0.976289C 75.7364 1.61531 77.1327 2.4851 78.2451 3.58564L 78.2451 8.7866L 74.411 8.7866L 73.6832 5.32521C 73.2098 4.92286 72.5826 4.60335 71.8016 4.36667C 71.0324 4.11816 70.1449 3.99391 69.139 3.99391C 66.8788 3.99391 65.1214 4.82819 63.8671 6.49676C 62.6127 8.16533 61.9855 10.3487 61.9855 13.0468L 61.9855 13.9698C 61.9855 16.5969 62.6008 18.6974 63.8315 20.2713C 65.0623 21.8334 66.8373 22.6144 69.1568 22.6144C 70.1981 22.6144 71.0383 22.5256 71.6774 22.3481C 72.3282 22.1706 72.8371 21.9635 73.2039 21.7269L 73.2039 17.3424L 69.5118 17.0584L 69.5118 13.4195L 78.4049 13.4195L 78.4049 23.3422Z" transform="translate(0.998047 0.953125)" fill="#28304A"/>
<path d="M 81.529 23.1114L 84.0141 22.5789L 84.0141 10.6682L 81.2627 10.1357L 81.2627 7.01153L 88.8423 7.01153L 89.0731 9.81614C 89.5227 8.8221 90.1026 8.04699 90.8126 7.4908C 91.5227 6.93461 92.3451 6.65652 93.28 6.65652C 93.5521 6.65652 93.8362 6.68018 94.132 6.72752C 94.4397 6.76302 94.6941 6.81035 94.8953 6.86952L 94.345 11.5912L 92.2149 11.538C 91.4576 11.538 90.8304 11.6859 90.3334 11.9817C 89.8363 12.2776 89.4577 12.6977 89.1973 13.242L 89.1973 22.5789L 91.6824 23.1114L 91.6824 26.2178L 81.529 26.2178L 81.529 23.1114Z" transform="translate(0.998047 0.953125)" fill="#28304A"/>
<path d="M 96.0846 16.4372C 96.0846 13.5734 96.8834 11.2303 98.4809 9.40788C 100.09 7.57364 102.309 6.65652 105.137 6.65652C 107.978 6.65652 110.196 7.56772 111.794 9.39012C 113.403 11.2125 114.208 13.5615 114.208 16.4372L 114.208 16.8099C 114.208 19.6974 113.403 22.0523 111.794 23.8747C 110.196 25.6853 107.989 26.5906 105.173 26.5906C 102.321 26.5906 100.09 25.6853 98.4809 23.8747C 96.8834 22.0523 96.0846 19.6974 96.0846 16.8099L 96.0846 16.4372ZM 101.268 16.8099C 101.268 18.5613 101.575 19.9695 102.191 21.0346C 102.806 22.0878 103.8 22.6144 105.173 22.6144C 106.51 22.6144 107.486 22.0819 108.102 21.0168C 108.729 19.9518 109.043 18.5495 109.043 16.8099L 109.043 16.4372C 109.043 14.7331 108.729 13.3426 108.102 12.2657C 107.475 11.1889 106.486 10.6504 105.137 10.6504C 103.788 10.6504 102.806 11.1889 102.191 12.2657C 101.575 13.3426 101.268 14.7331 101.268 16.4372L 101.268 16.8099Z" transform="translate(0.998047 0.953125)" fill="#28304A"/>
<path d="M 129.9 23.7859C 129.284 24.6853 128.521 25.3776 127.61 25.8628C 126.71 26.348 125.681 26.5906 124.521 26.5906C 122.498 26.5906 120.912 25.9456 119.764 24.6557C 118.616 23.354 118.042 21.3363 118.042 18.6027L 118.042 10.6682L 115.93 10.1357L 115.93 7.01153L 123.225 7.01153L 123.225 18.6382C 123.225 20.0346 123.456 21.0405 123.918 21.6559C 124.391 22.2594 125.089 22.5611 126.012 22.5611C 126.829 22.5611 127.533 22.431 128.125 22.1706C 128.728 21.8985 129.219 21.5139 129.598 21.0168L 129.598 10.6682L 127.326 10.1357L 127.326 7.01153L 134.781 7.01153L 134.781 22.5789L 137.106 23.1114L 137.106 26.2178L 130.237 26.2178L 129.9 23.7859Z" transform="translate(0.998047 0.953125)" fill="#28304A"/>
<path d="M 138.757 10.1357L 138.757 7.01153L 146.284 7.01153L 146.532 9.24812C 147.1 8.41975 147.781 7.78073 148.573 7.33104C 149.366 6.88136 150.289 6.65652 151.343 6.65652C 153.721 6.65652 155.567 7.58547 156.881 9.44338C 158.194 11.3013 158.851 13.745 158.851 16.7744L 158.851 17.1472C 158.851 19.9873 158.194 22.2712 156.881 23.999C 155.567 25.7267 153.733 26.5906 151.378 26.5906C 150.372 26.5906 149.479 26.4071 148.698 26.0403C 147.917 25.6616 147.248 25.1113 146.692 24.3895L 146.692 29.9454L 149.195 30.478L 149.195 33.6021L 139.024 33.6021L 139.024 30.478L 141.526 29.9454L 141.526 10.6682L 138.757 10.1357ZM 153.668 16.7744C 153.668 14.9638 153.366 13.4965 152.763 12.3722C 152.159 11.248 151.236 10.6859 149.993 10.6859C 149.212 10.6859 148.544 10.8457 147.988 11.1652C 147.443 11.4847 147.011 11.9403 146.692 12.532L 146.692 20.9458C 147.011 21.4902 147.443 21.9044 147.988 22.1884C 148.544 22.4724 149.224 22.6144 150.029 22.6144C 151.283 22.6144 152.2 22.1233 152.78 21.1411C 153.372 20.1589 153.668 18.8276 153.668 17.1472L 153.668 16.7744Z" transform="translate(0.998047 0.953125)" fill="#28304A"/>
</g>
</g>
</svg>

