<svg width="162" height="54" viewBox="0 0 162 54" version="1.1" xmlns="http://www.w3.org/2000/svg" xmlns:xlink="http://www.w3.org/1999/xlink">
<g id="Canvas" fill="none">
<g id="Group 2">
<g id="Group 2.12">
<g id="Group">
<g id="Rectangle 2">
<path d="M 0 26.7815C 0 11.9905 11.9905 0 26.7815 0L 172.698 0L 172.698 53.563L 26.7815 53.563C 11.9905 53.563 0 41.5725 0 26.7815Z" transform="translate(0 0.4375)" fill="#94D602"/>
</g>
<g id="Vector">
<path d="M 22.0719 17.7689C 21.4452 18.1833 20.6097 17.5617 20.0527 17.4235C 19.3564 17.2163 18.6601 17.3545 18.0335 17.0782C 18.4512 17.6998 19.5653 17.907 20.1919 18.1833C 20.4704 18.3214 20.6097 18.3214 20.6097 18.4596C 20.6097 18.5287 20.6097 18.6668 20.6793 18.8049C 20.6793 19.2884 20.6097 19.7028 20.6097 20.1863C 20.6097 21.0842 20.6793 21.9821 20.9578 22.9491C 21.1667 23.5707 21.306 24.6067 21.7237 25.0902C 22.0719 25.5046 23.2555 25.3665 22.977 26.3334C 23.6037 26.6097 23.3948 27.4386 23.8822 27.922C 23.6037 27.7839 23.3252 27.7148 22.977 27.6458C 22.3504 27.3695 21.7934 26.886 21.2363 26.5407C 20.9578 26.4025 20.5401 26.2644 20.4008 25.9881C 20.2616 25.7118 20.3312 25.2283 20.2616 24.883C 20.1223 24.1232 19.983 23.3635 19.8438 22.6037C 19.7742 22.1893 19.7742 21.7749 19.6349 21.4295C 19.5653 21.0842 19.2868 20.7389 19.1475 20.4626C 18.869 19.841 18.4512 19.1503 17.755 18.874C 17.0587 18.5287 16.3624 18.5977 15.5965 18.3905C 14.761 18.1833 13.9255 17.907 13.0203 17.907C 12.1848 17.907 11.4189 18.0452 10.5834 18.1142C 9.05155 18.2524 7.58938 18.6668 6.19683 17.6998C 5.57018 17.2163 4.87392 16.6638 4.59541 15.904C 4.45615 15.4896 4.38652 15.2133 4.38652 14.7989C 4.38652 14.3154 4.52577 13.901 4.31689 13.4175C 4.03838 12.7959 3.55099 12.2434 3.13323 11.7599C 1.87994 9.9641 1.46217 7.9611 2.78509 6.02717C 3.41174 5.19834 4.17764 4.1623 4.17764 3.12627C 4.24727 2.29744 3.62062 1.67582 2.92435 1.74489C 2.64584 1.74489 1.46218 1.39954 1.46218 1.26141C 1.46218 1.12327 2.71547 0.846991 3.13323 0.708854C 3.69025 0.570716 3.89913 -0.119974 4.52578 0.0181638C 5.01317 0.0872328 5.43094 0.570716 5.63982 0.98513C 6.12721 1.88303 6.05758 3.0572 5.70944 3.9551C 5.15242 5.40554 3.96875 6.44158 3.75987 8.09923C 3.69024 8.99713 3.8295 10.1022 4.66503 10.5166C 5.43093 10.9311 5.8487 10.4476 6.47534 10.1022C 7.24125 9.61875 8.14639 9.13527 8.98192 8.85899C 9.6782 8.65179 10.4441 8.65179 11.21 8.65179C 12.9507 8.65179 13.9255 8.37551 15.5965 8.92806C 17.1979 9.41155 17.9639 10.0332 19.7742 10.9311C 20.9578 11.0001 24.2999 11.2764 25.3443 12.865C 25.8317 13.6248 26.6673 14.3154 26.5976 15.2824C 26.528 16.1803 25.9014 17.3545 25.0658 17.7689C 25.2747 17.1473 25.4836 16.1803 24.857 15.6968C 24.5088 15.904 24.4392 16.3875 24.4392 16.8019C 23.8822 16.7329 23.3252 16.3184 22.8378 16.1803C 22.3504 15.9731 21.5845 15.835 21.306 15.3515C 20.6793 16.2494 21.5845 17.5617 22.42 18.0452L 22.0719 17.7689ZM 10.8619 18.6668C 10.3745 18.874 9.46931 18.9431 8.98192 18.9431C 9.05155 19.7719 9.26043 20.877 8.98192 21.4295C 8.4249 22.6037 6.96274 23.0181 5.77907 23.916C 4.87392 24.6067 3.8295 25.0902 3.0636 25.919C 2.71546 26.2644 2.36733 26.7479 1.94957 27.0932C 1.60143 27.3695 0.487393 27.3695 0.208884 27.6458C 0.139257 27.7839 0 28.0602 0 28.2674C 0.557019 28.0602 2.01919 28.5437 2.36733 27.922C 2.57621 28.1983 2.85472 28.1292 3.13323 27.9911C 3.69025 27.7148 3.48137 27.3004 3.8295 26.886C 4.03839 26.6788 4.5954 26.3334 4.87391 26.0572C 6.26646 24.5377 8.00714 23.847 9.74783 22.6728C 11.1404 21.7749 10.9315 21.4986 10.7922 21.2223C 10.7226 21.0842 10.1656 19.91 10.9315 18.9431L 10.8619 18.6668Z" transform="translate(48.1895 13.3945) scale(-1 1)" fill="black"/>
</g>
</g>
</g>
<g id="Group_2">
<g id="Group_3">
<g id="Vector_2">
<path d="M 8.66738e-10 11.143L 8.66738e-10 1.40566e-08L 3.72261 1.40566e-08C 5.23492 1.40566e-08 6.39824 0.23583 7.27073 0.707491C 8.14322 1.17915 8.84121 1.82768 9.3647 2.71205C 9.88819 3.59641 10.1209 4.53973 10.1209 5.60097C 10.1209 6.36742 10.0045 7.07491 9.71369 7.72344C 9.42286 8.43093 9.0157 9.02051 8.49221 9.49217C 7.96872 10.0228 7.32889 10.4355 6.6309 10.6713C 6.22374 10.8482 5.81658 10.9661 5.46759 11.0251C 5.11859 11.084 4.47877 11.084 3.48995 11.084L 8.66738e-10 11.084L 8.66738e-10 11.143ZM 3.54812 1.41498L 1.57048 1.41498L 1.57048 9.728L 3.60628 9.728C 4.4206 9.728 5.00226 9.66904 5.46759 9.55112C 5.87475 9.43321 6.28191 9.31529 6.57274 9.13842C 6.86357 8.96155 7.1544 8.78468 7.38706 8.54885C 8.14322 7.72344 8.55038 6.72116 8.55038 5.54201C 8.55038 4.36286 8.14322 3.36058 7.32889 2.59413C 7.03806 2.29934 6.68907 2.06351 6.34007 1.88664C 5.93291 1.70977 5.58392 1.59185 5.23492 1.5329C 4.88593 1.47394 4.30427 1.41498 3.54812 1.41498Z" transform="translate(63.0957 16.9648)" fill="black"/>
</g>
<g id="Vector_3">
<path d="M 6.57274 3.95016L 1.45415 3.95016C 1.51231 4.65765 1.74497 5.18826 2.15214 5.60097C 2.5593 6.01367 3.14095 6.2495 3.78078 6.2495C 4.71143 6.2495 5.58392 5.95471 6.39824 5.36514L 6.39824 6.78012C 5.93291 7.07491 5.52575 7.31074 5.06043 7.42865C 4.65327 7.54657 4.12977 7.60552 3.54812 7.60552C 2.73379 7.60552 2.09397 7.42865 1.62864 7.07491C 1.16332 6.72116 0.756156 6.30846 0.465327 5.71888C 0.174497 5.12931 4.4377e-07 4.48077 4.4377e-07 3.77328C 4.4377e-07 2.65309 0.290829 1.76873 0.930653 1.06124C 1.57048 0.353746 2.3848 1.12453e-07 3.37362 1.12453e-07C 4.36244 1.12453e-07 5.11859 0.353745 5.70025 1.00228C 6.28191 1.70977 6.57274 2.59413 6.57274 3.71433L 6.57274 3.95016ZM 1.51231 3.12475L 5.11859 3.12475C 5.06043 2.53517 4.88593 2.12247 4.5951 1.76873C 4.30427 1.47394 3.89711 1.29707 3.37362 1.29707C 2.85013 1.29707 2.44296 1.47394 2.09397 1.76873C 1.80314 2.06351 1.57048 2.53517 1.51231 3.12475Z" transform="translate(74.2031 20.6211)" fill="black"/>
</g>
<g id="Vector_4">
<path d="M 4.4377e-07 1.40566e-08L 1.45415 1.40566e-08L 1.45415 11.143L 4.4377e-07 11.143L 4.4377e-07 1.40566e-08Z" transform="translate(82.0566 16.9648)" fill="black"/>
</g>
<g id="Vector_5">
<path d="M 0.814321 -2.81132e-08C 1.04698 -2.81132e-08 1.27965 0.0589576 1.39598 0.23583C 1.57048 0.412703 1.62864 0.589576 1.62864 0.825406C 1.62864 1.06124 1.57048 1.23811 1.39598 1.41498C 1.22148 1.59185 1.04698 1.65081 0.814321 1.65081C 0.581658 1.65081 0.40716 1.59185 0.232663 1.41498C 0.0581654 1.23811 8.8754e-07 1.06124 8.8754e-07 0.825406C 8.8754e-07 0.589576 0.0581654 0.412703 0.232663 0.23583C 0.40716 0.117915 0.581658 -2.81132e-08 0.814321 -2.81132e-08ZM 0.116331 3.12475L 1.57048 3.12475L 1.57048 10.4355L 0.116331 10.4355L 0.116331 3.12475Z" transform="translate(85.0801 17.6719)" fill="black"/>
</g>
<g id="Vector_6">
<path d="M 5.35126 -5.62263e-08L 6.92173 -5.62263e-08L 3.72261 7.48761L 3.25729 7.48761L 8.8754e-07 -5.62263e-08L 1.57048 -5.62263e-08L 3.54812 4.53973L 5.35126 -5.62263e-08Z" transform="translate(87.4082 20.7969)" fill="black"/>
</g>
<g id="Vector_7">
<path d="M 6.57274 3.95016L 1.45415 3.95016C 1.51231 4.65765 1.74497 5.18826 2.15214 5.60097C 2.5593 6.01367 3.14095 6.2495 3.78078 6.2495C 4.71143 6.2495 5.58392 5.95471 6.39824 5.36514L 6.39824 6.78012C 5.93292 7.07491 5.52575 7.31074 5.06043 7.42865C 4.65327 7.54657 4.12977 7.60552 3.54812 7.60552C 2.73379 7.60552 2.09397 7.42865 1.62864 7.07491C 1.10515 6.72116 0.756155 6.30846 0.465326 5.71888C 0.174497 5.12931 -4.4377e-07 4.48077 -4.4377e-07 3.77328C -4.4377e-07 2.65309 0.29083 1.76873 0.930654 1.06124C 1.57048 0.353746 2.3848 1.12453e-07 3.37362 1.12453e-07C 4.36244 1.12453e-07 5.11859 0.353745 5.70025 1.00228C 6.28191 1.70977 6.57274 2.59413 6.57274 3.71433L 6.57274 3.95016ZM 1.51231 3.12475L 5.17676 3.12475C 5.11859 2.53517 4.94409 2.12247 4.65327 1.76873C 4.36244 1.47394 3.95528 1.29707 3.43178 1.29707C 2.90829 1.29707 2.50113 1.47394 2.15214 1.76873C 1.86131 2.06351 1.62864 2.53517 1.51231 3.12475Z" transform="translate(94.3281 20.6211)" fill="black"/>
</g>
<g id="Vector_8">
<path d="M 1.51231 0.117915L 1.51231 1.82768L 1.57048 1.70977C 2.26847 0.589576 2.96646 5.62263e-08 3.66445 5.62263e-08C 4.18794 5.62263e-08 4.7696 0.294788 5.35126 0.825406L 4.5951 2.12247C 4.07161 1.65081 3.60628 1.41498 3.19912 1.41498C 2.7338 1.41498 2.32663 1.65081 1.97764 2.06351C 1.62864 2.53517 1.45415 3.06579 1.45415 3.65537L 1.45415 7.48761L 1.77508e-06 7.48761L 1.77508e-06 0.117915L 1.51231 0.117915Z" transform="translate(102.184 20.6797)" fill="black"/>
</g>
<g id="Vector_9">
<path d="M 5.46759 -5.62263e-08L 7.09623 -5.62263e-08L 1.97764 11.084L 0.348993 11.084L 2.79196 5.77784L -8.8754e-07 -5.62263e-08L 1.62864 -5.62263e-08L 3.60628 4.12703L 5.46759 -5.62263e-08Z" transform="translate(107.592 20.7969)" fill="black"/>
</g>
<g id="Vector_10">
<path d="M 9.65553 0.943321L 9.65553 1.88664C 8.31771 1.17915 7.03807 0.825406 5.75842 0.825406C 4.4206 0.825406 3.25729 1.29707 2.32663 2.24039C 1.39598 3.18371 0.930653 4.36286 0.930653 5.77784C 0.930653 7.19282 1.39598 8.37197 2.32663 9.3153C 3.25729 10.2586 4.4206 10.6713 5.87475 10.6713C 7.09623 10.6713 8.37588 10.3176 9.77186 9.55112L 9.77186 10.3765C 8.49221 11.084 7.1544 11.4378 5.87475 11.4378C 4.18794 11.4378 2.79196 10.9071 1.68681 9.78695C 0.58166 8.72572 8.8754e-07 7.3697 8.8754e-07 5.71888C 8.8754e-07 4.06807 0.58166 2.71205 1.68681 1.65081C 2.85013 0.530618 4.18794 3.51414e-09 5.75842 3.51414e-09C 7.03807 3.51414e-09 8.31771 0.294788 9.65553 0.943321Z" transform="translate(119.105 16.8477)" fill="black"/>
</g>
<g id="Vector_11">
<path d="M 0.756156 1.40566e-08L 0.756156 11.143L -1.77508e-06 11.143L -1.77508e-06 1.40566e-08L 0.756156 1.40566e-08Z" transform="translate(130.043 16.9648)" fill="black"/>
</g>
<g id="Vector_12">
<path d="M 5.11859 7.3697L 5.11859 6.13159L 5.06043 6.13159C 4.71143 6.60325 4.36244 6.95699 4.01344 7.19282C 3.66445 7.42865 3.19912 7.48761 2.67563 7.48761C 1.91947 7.48761 1.27965 7.25178 0.756158 6.72116C 0.232665 6.19054 0 5.48305 0 4.53973L 0 0L 0.756158 0L 0.756158 4.53973C 0.756158 5.24722 0.930651 5.77784 1.27965 6.13159C 1.62864 6.54429 2.15213 6.72116 2.73379 6.72116C 3.25728 6.72116 3.66445 6.60325 4.01344 6.36742C 4.36244 6.13159 4.71143 5.71888 5.06043 5.12931L 5.06043 0L 5.81658 0L 5.81658 7.31074L 5.11859 7.31074L 5.11859 7.3697Z" transform="translate(132.547 20.7383)" fill="black"/>
</g>
<g id="Vector_13">
<path d="M 3.55016e-06 10.7303L 3.55016e-06 1.40566e-08L 0.756152 1.40566e-08L 0.756152 4.83452C 1.51231 4.00911 2.3848 3.65537 3.37361 3.65537C 4.30427 3.65537 5.11859 4.00911 5.70025 4.65765C 6.28191 5.30618 6.6309 6.19054 6.6309 7.25178C 6.6309 8.48989 6.28191 9.43321 5.52576 10.1997C 4.7696 10.9071 3.83894 11.3199 2.5593 11.3199C 1.74498 11.3199 0.872491 11.143 3.55016e-06 10.7303ZM 0.756152 5.77784L 0.756152 10.1997C 1.33781 10.4355 1.91947 10.5534 2.5593 10.5534C 3.48995 10.5534 4.24611 10.2586 4.88593 9.66904C 5.52575 9.07946 5.81659 8.31302 5.81659 7.36969C 5.81659 6.48533 5.58392 5.77784 5.11859 5.24722C 4.65326 4.7166 4.07161 4.42182 3.31545 4.42182C 2.3848 4.36286 1.57047 4.83452 0.756152 5.77784Z" transform="translate(140.166 16.9648)" fill="black"/>
</g>
</g>
<g id="Shape">
<g id="Vector_14">
<path d="M 0 -2.81131e-08L 1.51231 -2.81131e-08C 2.67563 -2.81131e-08 3.14095 0.589576 3.14095 1.23811C 3.14095 1.70977 2.85013 2.00456 2.5593 2.24039C 3.08279 2.41726 3.37362 2.82996 3.37362 3.36058C 3.37362 4.18599 2.85013 4.7166 1.51231 4.7166L 0 4.7166L 0 -2.81131e-08ZM 1.74497 2.06351C 2.0358 2.06351 2.44296 1.88664 2.44296 1.35602C 2.44296 0.884363 2.09397 0.648533 1.51231 0.648533L 0.756156 0.648533L 0.756156 2.06351L 1.74497 2.06351ZM 0.756156 2.59413L 0.756156 4.12703L 1.57048 4.12703C 2.3848 4.12703 2.67563 3.83224 2.67563 3.30162C 2.67563 2.82996 2.32663 2.59413 1.80314 2.59413L 0.756156 2.59413Z" transform="translate(63.0352 33.5859)" fill="#231F20"/>
</g>
<g id="Vector_15">
<path d="M 2.3848 3.24267C 2.32663 3.41954 2.0358 3.83224 1.27965 3.83224C 0.465327 3.83224 5.54713e-08 3.41954 5.54713e-08 2.771C 5.54713e-08 1.70977 1.51231 1.47394 2.3848 1.41498L 2.3848 1.35602C 2.3848 0.825406 2.15214 0.589576 1.57048 0.589576C 0.930653 0.589576 0.69799 0.943321 0.69799 0.943321L 0.232663 0.589576C 0.232663 0.589576 0.581658 0 1.62864 0C 2.61746 0 3.14095 0.412703 3.14095 1.35602L 3.14095 3.71433L 2.50113 3.71433L 2.3848 3.24267ZM 2.3848 2.71205L 2.3848 1.9456C 1.57048 2.00456 0.814322 2.18143 0.814322 2.71205C 0.814322 3.06579 1.04699 3.30162 1.57048 3.30162C 2.15214 3.30162 2.32663 2.77101 2.3848 2.71205Z" transform="translate(67.0488 34.5898)" fill="#231F20"/>
</g>
<g id="Vector_16">
<path d="M 4.82776 3.59641L 2.21885e-07 3.59641L 2.21885e-07 2.81132e-08L 0.756155 2.81132e-08L 0.756155 3.00684L 2.0358 3.00684L 2.0358 2.81132e-08L 2.79196 2.81132e-08L 2.79196 3.00684L 4.07161 3.00684L 4.07161 2.81132e-08L 4.82776 2.81132e-08L 4.82776 3.59641Z" transform="translate(71.2363 34.707)" fill="#231F20"/>
</g>
<g id="Vector_17">
<path d="M 2.3848 3.24267C 2.32663 3.41954 2.0358 3.83224 1.27965 3.83224C 0.465327 3.83224 -4.4377e-07 3.41954 -4.4377e-07 2.771C -4.4377e-07 1.70977 1.51231 1.47394 2.3848 1.41498L 2.3848 1.35602C 2.3848 0.825406 2.15214 0.589576 1.57048 0.589576C 0.930653 0.589576 0.69799 0.943321 0.69799 0.943321L 0.232664 0.589576C 0.232664 0.589576 0.581659 0 1.62864 0C 2.61746 0 3.14096 0.412703 3.14096 1.35602L 3.14096 3.71433L 2.50113 3.71433L 2.3848 3.24267ZM 2.32663 2.71205L 2.32663 1.9456C 1.51231 2.00456 0.756156 2.18143 0.756156 2.71205C 0.756156 3.06579 0.988819 3.30162 1.51231 3.30162C 2.15214 3.30162 2.32663 2.77101 2.32663 2.71205Z" transform="translate(76.8789 34.5898)" fill="#231F20"/>
</g>
<g id="Vector_18">
<path d="M 3.37362 3.59641L 2.61746 3.59641L 2.61746 0.589576L 1.45415 0.589576C 1.45415 2.59413 1.16332 3.65537 0.232663 3.65537C 0.174497 3.65537 0.116333 3.65537 8.8754e-07 3.65537L 8.8754e-07 3.06579L 0.0581658 3.06579C 0.581658 3.06579 0.756156 2.24039 0.756156 2.81132e-08L 3.43178 2.81132e-08L 3.43178 3.59641L 3.37362 3.59641Z" transform="translate(82.7539 34.707)" fill="#231F20"/>
</g>
<g id="Vector_19">
<path d="M 4.88593 1.89006C 4.88593 3.06921 4.30427 3.83566 3.08279 3.83566C 2.0358 3.83566 1.45415 3.24608 1.39598 2.18484L 0.756157 2.18484L 0.756157 3.71774L -8.8754e-07 3.71774L -8.8754e-07 0.12133L 0.756157 0.12133L 0.756157 1.53631L 1.39598 1.53631C 1.51231 0.534033 2.09397 0.00341488 3.08279 0.00341488C 4.30427 -0.0555427 4.88593 0.651948 4.88593 1.89006ZM 2.09397 1.8311C 2.09397 2.6565 2.32663 3.18712 3.08279 3.18712C 3.83895 3.18712 4.12977 2.6565 4.12977 1.8311C 4.12977 1.06465 3.89711 0.475075 3.08279 0.475075C 2.32663 0.534033 2.09397 1.06465 2.09397 1.8311Z" transform="translate(87.2324 34.6484)" fill="#231F20"/>
</g>
<g id="Vector_20">
<path d="M 0.639823 2.47622C 0.872487 2.06351 1.33781 1.76873 1.97764 1.76873C 3.08279 1.76873 3.72261 2.53518 3.72261 3.71433C 3.72261 4.89348 3.02462 5.65993 1.86131 5.65993C 0.581659 5.60097 0 4.83452 0 3.4785C 0 1.70977 0.29083 0.353745 2.15214 0.117915L 3.31545 0L 3.37362 0.766448L 2.3848 0.884363C 1.22148 0.943321 0.756155 1.47394 0.639823 2.47622ZM 0.814322 3.53745L 0.814322 3.65537C 0.814322 4.48077 1.10515 5.01139 1.86131 5.01139C 2.61746 5.01139 2.90829 4.53973 2.90829 3.65537C 2.90829 2.82996 2.61746 2.3583 1.86131 2.3583C 1.16332 2.3583 0.814322 2.82996 0.814322 3.53745Z" transform="translate(92.6992 32.8203)" fill="#231F20"/>
</g>
<g id="Vector_21">
<path d="M -4.4377e-07 2.81132e-08L 0.756155 2.81132e-08L 0.756155 2.47622L 2.5593 0.23583L 2.61746 2.81132e-08L 3.31545 2.81132e-08L 3.31545 3.59641L 2.5593 3.59641L 2.5593 1.17915L 0.756155 3.41954L 0.69799 3.59641L -4.4377e-07 3.59641L -4.4377e-07 2.81132e-08Z" transform="translate(97.2363 34.707)" fill="#231F20"/>
</g>
<g id="Vector_22">
<path d="M 4.4206 3.65537L 3.72262 3.65537L 3.72262 1.41498L 3.78078 0.825406L 2.61746 3.59641L 1.86131 3.59641L 0.697989 0.825406L 0.697989 1.41498L 0.697989 3.59641L 8.8754e-07 3.59641L 8.8754e-07 -5.62263e-08L 0.988818 -5.62263e-08L 2.2103 3.06579L 3.43179 -5.62263e-08L 4.4206 -5.62263e-08L 4.4206 3.65537Z" transform="translate(101.658 34.6484)" fill="#231F20"/>
</g>
<g id="Vector_23">
<path d="M 2.3848 3.24267C 2.32663 3.41954 2.0358 3.83224 1.27965 3.83224C 0.465327 3.83224 1.77508e-06 3.41954 1.77508e-06 2.771C 1.77508e-06 1.70977 1.51231 1.47394 2.3848 1.41498L 2.3848 1.35602C 2.3848 0.825406 2.15214 0.589576 1.57048 0.589576C 0.930653 0.589576 0.69799 0.943321 0.69799 0.943321L 0.232662 0.589576C 0.232662 0.589576 0.581657 0 1.62864 0C 2.61746 0 3.14095 0.412703 3.14095 1.35602L 3.14095 3.71433L 2.50113 3.71433L 2.3848 3.24267ZM 2.3848 2.71205L 2.3848 1.9456C 1.57048 2.00456 0.81432 2.18143 0.81432 2.71205C 0.81432 3.06579 1.04699 3.30162 1.57048 3.30162C 2.2103 3.30162 2.3848 2.77101 2.3848 2.71205Z" transform="translate(106.834 34.5898)" fill="#231F20"/>
</g>
<g id="Vector_24">
<path d="M 3.08279 3.59641L 2.26847 3.59641L 2.26847 2.24039L 1.51231 2.24039L 0.814322 3.59641L -8.8754e-07 3.59641L 0.814322 2.18143C 0.290829 2.00456 0.058164 1.65081 0.058164 1.12019C 0.058164 0.353745 0.523494 2.81132e-08 1.57048 2.81132e-08L 3.08279 2.81132e-08L 3.08279 3.59641ZM 1.62864 1.76873L 2.26847 1.76873L 2.26847 0.530618L 1.62864 0.530618C 1.04699 0.530618 0.756157 0.707491 0.756157 1.12019C 0.756157 1.59185 1.10515 1.76873 1.62864 1.76873Z" transform="translate(110.791 34.707)" fill="#231F20"/>
</g>
<g id="Vector_25">
<path d="M 4.12977 4.59869L 3.48995 4.59869L 3.48995 3.59641L 0.639823 3.59641L 0.581658 4.59869L 0.058165 4.59869L 0 3.00684L 0.465328 3.00684C 0.814323 2.18143 0.930652 1.35602 0.930652 2.81132e-08L 3.60628 2.81132e-08L 3.60628 3.00684L 4.18794 3.00684L 4.12977 4.59869ZM 1.22148 3.00684L 2.90829 3.00684L 2.90829 0.648533L 1.57048 0.648533C 1.57048 1.5329 1.45415 2.29934 1.22148 3.00684Z" transform="translate(116.549 34.707)" fill="#231F20"/>
</g>
<g id="Vector_26">
<path d="M 1.8613 3.8912C 0.639822 3.8912 0 3.18371 0 1.9456C 0 0.766448 0.639822 5.62263e-08 1.8613 5.62263e-08C 3.08279 5.62263e-08 3.72261 0.766448 3.72261 1.9456C 3.72261 3.18371 3.02462 3.8912 1.8613 3.8912ZM 0.814322 1.9456C 0.814322 2.771 1.10515 3.30162 1.8613 3.30162C 2.61746 3.30162 2.90829 2.771 2.90829 1.9456C 2.90829 1.12019 2.61746 0.648533 1.8613 0.648533C 1.10515 0.648533 0.814322 1.17915 0.814322 1.9456Z" transform="translate(121.201 34.5352)" fill="#231F20"/>
</g>
<g id="Vector_27">
<path d="M 3.25729 3.12475C 3.25729 3.12475 2.96646 3.83224 1.80314 3.83224C 0.639825 3.83224 1.77508e-06 3.18371 1.77508e-06 1.9456C 1.77508e-06 0.766448 0.639824 0 1.86131 0C 2.79196 0 3.14095 0.471661 3.14095 0.471661L 2.90829 0.943321C 2.90829 0.943321 2.44296 0.589576 1.97764 0.589576C 1.22148 0.589576 0.81432 1.00228 0.81432 1.9456C 0.81432 2.88892 1.22148 3.24267 1.91947 3.24267C 2.50113 3.24267 2.85012 2.82996 2.85012 2.82996L 3.25729 3.12475Z" transform="translate(125.445 34.5898)" fill="#231F20"/>
</g>
<g id="Vector_28">
<path d="M 1.91947 0.648533L 1.91947 3.65537L 1.10515 3.65537L 1.10515 0.648533L -8.8754e-07 0.648533L -8.8754e-07 2.81132e-08L 2.90829 2.81132e-08L 2.90829 0.648533L 1.91947 0.648533Z" transform="translate(128.82 34.707)" fill="#231F20"/>
</g>
<g id="Vector_29">
<path d="M 2.3848 3.24267C 2.32663 3.41954 2.03581 3.83224 1.27965 3.83224C 0.465328 3.83224 -8.8754e-07 3.41954 -8.8754e-07 2.771C -8.8754e-07 1.70977 1.51231 1.47394 2.3848 1.41498L 2.3848 1.35602C 2.3848 0.825406 2.15214 0.589576 1.57048 0.589576C 0.930655 0.589576 0.697992 0.943321 0.697992 0.943321L 0.232663 0.589576C 0.232663 0.589576 0.581659 0 1.62864 0C 2.61746 0 3.14095 0.412703 3.14095 1.35602L 3.14095 3.71433L 2.50113 3.71433L 2.3848 3.24267ZM 2.32663 2.71205L 2.32663 1.9456C 1.51231 2.00456 0.756157 2.18143 0.756157 2.71205C 0.756157 3.06579 0.988817 3.30162 1.51231 3.30162C 2.15213 3.30162 2.32663 2.77101 2.32663 2.71205Z" transform="translate(132.02 34.5898)" fill="#231F20"/>
</g>
<g id="Vector_30">
<path d="M 2.90829 0.890746C 2.90829 1.36241 2.61746 1.59824 2.32663 1.71615C 2.67563 1.83407 3.08279 2.0699 3.08279 2.54156C 3.08279 3.19009 2.67563 3.60279 1.45415 3.60279L 1.77508e-06 3.60279L 1.77508e-06 0.00638284L 1.45415 0.00638284C 2.5593 -0.0525747 2.90829 0.301171 2.90829 0.890746ZM 1.57048 1.48032C 1.57048 1.48032 2.15214 1.42136 2.15214 0.949704C 2.15214 0.654916 1.97764 0.419086 1.45415 0.419086L 0.69799 0.419086L 0.69799 1.42136L 1.57048 1.42136L 1.57048 1.48032ZM 0.69799 1.89302L 0.69799 2.95426L 1.39598 2.95426C 2.09397 2.95426 2.26847 2.71843 2.26847 2.36469C 2.26847 2.0699 2.03581 1.83407 1.45415 1.83407L 0.69799 1.83407L 0.69799 1.89302Z" transform="translate(136.207 34.7578)" fill="#231F20"/>
</g>
<g id="Vector_31">
<path d="M 0 2.81132e-08L 0.756158 2.81132e-08L 0.756158 1.5329L 1.16332 1.29707L 2.2103 0.0589575L 3.08279 0.0589575L 1.74497 1.65081L 3.19912 3.65537L 2.26846 3.65537L 1.10515 2.00456L 0.756158 2.18143L 0.756158 3.71433L 0 3.71433L 0 2.81132e-08Z" transform="translate(140.104 34.707)" fill="#231F20"/>
</g>
<g id="Vector_32">
<path d="M 2.3848 3.24267C 2.32664 3.41954 2.0358 3.83224 1.27965 3.83224C 0.465325 3.83224 0 3.41954 0 2.771C 0 1.70977 1.51232 1.47394 2.3848 1.41498L 2.3848 1.35602C 2.3848 0.825406 2.15213 0.589576 1.57048 0.589576C 0.930652 0.589576 0.697988 0.943321 0.697988 0.943321L 0.23266 0.589576C 0.23266 0.589576 0.58166 0 1.62865 0C 2.61746 0 3.14095 0.412703 3.14095 1.35602L 3.14095 3.71433L 2.50113 3.71433L 2.3848 3.24267ZM 2.3848 2.71205L 2.3848 1.9456C 1.57048 2.00456 0.814318 2.18143 0.814318 2.71205C 0.814318 3.06579 1.04698 3.30162 1.57048 3.30162C 2.2103 3.30162 2.3848 2.77101 2.3848 2.71205Z" transform="translate(143.596 34.5898)" fill="#231F20"/>
</g>
</g>
</g>
</g>
</g>
</svg>

