<svg xmlns="http://www.w3.org/2000/svg" viewBox="0 0 111.3 79.27"><defs><style>.cls-1{fill:none;stroke:#ba8161;stroke-linecap:round;stroke-linejoin:round;stroke-width:2.5px;}</style></defs><title>dinner</title><g id="Слой_2" data-name="Слой 2"><g id="Слой_1-2" data-name="Слой 1"><g id="Group_105" data-name="Group 105"><g id="Group_106" data-name="Group 106"><g id="Vector_100" data-name="Vector 100"><path class="cls-1" d="M91,41.09A34.23,34.23,0,1,1,56.77,6.87,34.24,34.24,0,0,1,91,41.09Z"/></g><g id="Vector_101" data-name="Vector 101"><path class="cls-1" d="M60.3,68.89H53.07a6.15,6.15,0,0,1-6-6.22V19.91a6.15,6.15,0,0,1,6-6.22H60.3a6.15,6.15,0,0,1,6,6.22V62.67A6.08,6.08,0,0,1,60.3,68.89Z"/></g><g id="Vector_102" data-name="Vector 102"><path class="cls-1" d="M47.15,41.7c0-2.31,4.32-4.32,9.63-4.32s9.64,1.91,9.64,4.32"/></g><g id="Vector_103" data-name="Vector 103"><path class="cls-1" d="M60.17,28.85a6.08,6.08,0,0,0-1.8.9,2,2,0,0,0-.8,1.81c.1.9,5.41,5.92,6.32,6.52s1.5,1.11,2.31,1.61a22.64,22.64,0,0,0-3.72-10c-.3-.4-.6-.9-1.1-1A2.6,2.6,0,0,0,60.17,28.85Z"/></g><g id="Vector_104" data-name="Vector 104"><path class="cls-1" d="M71.37,31a6.11,6.11,0,0,1,1.4.7,1.55,1.55,0,0,1,.6,1.41c-.1.7-4.31,4.72-4.91,5.12a19,19,0,0,0-1.81,1.3,18.56,18.56,0,0,1,2.91-7.93,1.76,1.76,0,0,1,.9-.8A2.92,2.92,0,0,1,71.37,31Z"/></g><g id="Vector_105" data-name="Vector 105"><path class="cls-1" d="M65.67,39.59c-.9,1.61-1.8,3.21-2.81,4.82a12.15,12.15,0,0,0-1,2c-.3.9-.4,2-.7,2.91a2.9,2.9,0,0,1-1.91,2.1"/></g><g id="Group_107" data-name="Group 107"><g id="Vector_106" data-name="Vector 106"><path class="cls-1" d="M5.75,1.25V14.1"/></g><g id="Vector_107" data-name="Vector 107"><path class="cls-1" d="M11.05,1.25V14.1"/></g><g id="Vector_108" data-name="Vector 108"><path class="cls-1" d="M10.43,27.54H6.51S2.35,23.93,1.25,14.09H15.93C15.08,23.93,10.43,27.54,10.43,27.54Z"/></g><g id="Vector_109" data-name="Vector 109"><path class="cls-1" d="M8.54,78c-2.08,0-3.79-1.1-3.79-2.41L6.46,27.54h3.92l1.83,48.07C12.34,76.92,10.62,78,8.54,78Z"/></g><g id="Vector_110" data-name="Vector 110"><path class="cls-1" d="M4.75,27.34h7.1"/></g><g id="Vector_111" data-name="Vector 111"><path class="cls-1" d="M1.25,1.25V14.1"/></g><g id="Vector_112" data-name="Vector 112"><path class="cls-1" d="M16,1.25V14.1"/></g></g><g id="Group_2_14" data-name="Group 2_14"><g id="Vector_113" data-name="Vector 113"><path class="cls-1" d="M108.12,2.05V38.38h-4.83s-4.84-13.25-4.84-17.76c0-8.33,6.32-16.16,8.73-18.87C107.45,1.55,108.12,1.65,108.12,2.05Z"/></g><g id="Vector_114" data-name="Vector 114"><path class="cls-1" d="M106,78c-2.29,0-4.17-.8-4.17-1.9L103.73,38H108l2,38.14C110.05,77.12,108.17,78,106,78Z"/></g><g id="Vector_115" data-name="Vector 115"><path class="cls-1" d="M101.85,38.18h7.66"/></g></g><g id="Vector_116" data-name="Vector 116"><path class="cls-1" d="M47.21,64.08A3.45,3.45,0,0,0,44.4,62,9.26,9.26,0,0,1,36,52.84a6.2,6.2,0,0,1,.1-1.41,2.09,2.09,0,0,0-.81-2,9.34,9.34,0,0,1-4.21-7.92,9.47,9.47,0,0,1,4.21-7.93,2,2,0,0,0,.91-2,7.62,7.62,0,0,1-.1-1.51c0-4.91,3.21-7.32,7.52-9.13,1.31-.5,2.71-.7,3.72-2.91"/></g><g id="Vector_117" data-name="Vector 117"><path class="cls-1" d="M66.25,64.08A3.44,3.44,0,0,1,69.06,62a9.18,9.18,0,0,0,8.43-9.13,6.2,6.2,0,0,0-.1-1.41,2,2,0,0,1,.9-2,9.18,9.18,0,0,0,4.32-7.92,9.31,9.31,0,0,0-4.32-7.93,2,2,0,0,1-.9-2,7.62,7.62,0,0,0,.1-1.51c0-4.91-3.21-7.32-7.63-9.13-1.3-.5-2.71-.7-3.81-2.91"/></g><g id="Vector_118" data-name="Vector 118"><path class="cls-1" d="M66.55,39.59a1.76,1.76,0,0,1,.9,1,17.47,17.47,0,0,1,1.81,5.32,9.24,9.24,0,0,0,.4,1.61,2.62,2.62,0,0,0,1.51,1.2"/></g></g></g></g></g></svg>