<svg xmlns="http://www.w3.org/2000/svg" viewBox="0 0 487.15 379.91"><defs><style>.cls-1{fill:#f7eee4;fill-opacity:0.71;}</style></defs><title>dish</title><g id="Слой_2" data-name="Слой 2"><g id="Слой_1-2" data-name="Слой 1"><g id="Group_3" data-name="Group 3"><g id="Group_4" data-name="Group 4"><g id="Vector_3" data-name="Vector 3"><path class="cls-1" d="M244,29c93.55.65,170.33,77.76,169.14,171a169.77,169.77,0,0,1-169.79,168c-93.55,0-170.33-77.65-169.14-170.77C75.55,103.51,151.24,29.67,244,29ZM405.32,198.59c0-90-71.44-161.51-161.29-161.51-90.28,0-161.73,71.33-161.73,161.51,0,90,71.45,161.4,161.3,161.51C333.77,360.21,405.32,288.77,405.32,198.59Z"/></g><g id="Vector_4" data-name="Vector 4"><path class="cls-1" d="M21.75,144.56c-3.37-2.07-5.88-3.7-8.38-5.34,1.3-2,2.61-3.81,4.13-6.09-3.92-9.59-8.93-19.93-12.08-30.72A124,124,0,0,1,.41,72C-.36,51.88.19,31.73.19,11.58c0-1.08-.44-2.39.11-3.15A36.94,36.94,0,0,1,4.22,4.07C5.52,5.59,7.81,6.9,8,8.54c.54,4.46.22,9,.22,13.61V64.4h9.36V11c0-3.27,0-7,4.14-6.86s3.92,3.92,3.92,7.08V64.4H39.4V11c0-3.27,0-7,4.13-6.86s3.92,3.92,3.92,7.08V64.4h9c.11-1.85.22-3.7.22-5.44V11c0-3.16,0-7,4.14-6.86s3.92,3.92,3.92,7.08c0,20.69.11,41.38,0,62.08-.22,19.49-7.4,37.13-15.57,54.34-.87,1.85-1.75,3.59-2.29,4.68,1.74,2.62,4.68,5.23,4.14,6.86-.65,2-4,3.05-6.54,4.69,0,9.36-.21,19.6.11,30C45,186.93,45.82,200,46.37,213Q49.15,285,51.7,357c.55,12.85-8.06,23-19.38,22.87s-19.61-10.56-19-23.3c1.3-26.69,2.17-53.26,3.26-79.94,1.64-39.86,3.49-79.72,5.12-119.58C22,152.73,21.75,148.05,21.75,144.56ZM30,143.47c-1.42,36.05-2.83,71.88-4.36,107.71-.87,21.78-2,43.46-2.83,65.24-.65,14.81-1.2,29.73-1.52,44.54-.11,7,4.24,11.11,11.21,11,7.3,0,11.33-4.36,11.11-12.31-1.41-39.64-2.83-79.39-4.35-119C38.2,209.47,37,178.32,36,147.17,35.91,143.36,34.6,141.84,30,143.47ZM56.6,73.34H8.36c0,3.26-.33,6.09,0,8.93,2.28,18.07,9.58,34.41,18.51,50.09,2.29,3.92,9.58,3.38,11.65-.87,4.25-8.82,8.5-17.64,12-26.68C54.42,94.9,57.37,84.66,56.6,73.34Z"/></g><g id="Vector_5" data-name="Vector 5"><path class="cls-1" d="M457.16,191.07c-2.17-.33-4.46.11-5.22-.87-1.2-1.42-2.51-4.9-2-5.34,3-2.61,1.85-5,.65-7.73a197.48,197.48,0,0,1-14.7-79.61A183.85,183.85,0,0,1,462.61,5.71C465,1.79,468-1,472.63.37s6,5.23,5.88,9.8V182a15.87,15.87,0,0,1,1.42-1c2.39,2,4.79,3.81,7.18,5.77-2.39,1.74-4.68,3.49-8.27,6.1.32,8.06.76,18,1.19,27.88.88,17.21,2,34.41,2.84,51.62,1.41,27,2.72,53.91,4.24,80.92.66,12-8.06,22.44-19.27,22.33S448.12,365.1,448.78,353c1.52-26.58,2.83-53.26,4.25-79.84,1.3-24.61,2.72-49.22,4-73.83C457.27,196.84,457.16,194.12,457.16,191.07ZM470.34,10.39a3.84,3.84,0,0,0-1.09-.22c-1.52,2.62-3.16,5.23-4.57,8C437.56,70.07,437.56,123,458.91,176.69c2.72,7,3.7,7.19,11.43,5ZM457,350.84v4.46c0,8.17,3.7,12.31,11,12.42,7.62.11,11.65-4.14,11.32-12.53-.54-13.17-1.41-26.46-2.07-39.64-2-39.1-3.7-78.2-5.77-117.29-.11-2.62,1.53-7.19-3.16-7.41-5.23-.11-3.37,4.79-3.48,7.52-1.09,18.4-1.75,36.92-2.73,55.43C460.54,286,458.69,318.16,457,350.84Z"/></g><g id="Vector_6" data-name="Vector 6"><path class="cls-1" d="M248.27,59.73c5.67,0,11.33-.54,16.89.11,18.84,2.4,31.69,14.81,34.52,33.65.65,4.58,2.72,5.56,6.32,6.21s7.07,1.42,10.67,2.18c14.27,3.05,22.76,12,25.92,26.14.87,4,1.74,8.17,2.29,12.3,1.52,11.44,5.77,21.46,13.72,30.06a103.17,103.17,0,0,1,11.54,15.8c5.34,8.82,5.23,17.86,0,26.79-2.28,3.92-4.57,7.95-7.73,11.11-11.33,11.32-16.88,25-18.62,40.62a64,64,0,0,1-1.64,7.95c-3.59,13.94-12.85,21.78-26.57,24.83a3.68,3.68,0,0,1-1.09.11c-9.15.65-14.7,3.59-18,14.05-5,16-18.4,24.5-35.07,25.81a129.29,129.29,0,0,1-30.38-.76c-17.43-2.62-28.43-13.62-33.33-30.28-1.09-3.59-2.5-5-6-5.66-6.64-1.09-13.18-2.51-19.71-4-13.61-3.05-21.56-11.87-24.83-25.16a107.18,107.18,0,0,1-2.83-14.38c-1.31-11.43-6.54-20.91-13.51-29.73a92.8,92.8,0,0,1-9.47-14.59c-4.58-8.71-4.8-17.75-.11-26.58,2-3.7,3.81-7.51,6.53-10.67C138.17,163.74,143.4,150,146,134.55c4-23.74,12.09-30.71,35.83-34.63h.55c8.6-.54,14.15-2.61,16.33-13.29,3.27-16,19.5-26.79,36.05-27h13.61C248.27,59.62,248.27,59.62,248.27,59.73Zm28.87,128.08c-2.07-.65-3.27-1.42-4.47-1.42-15.68-.54-31.37-1.41-47.05-1.3-5.77,0-11.65,2.39-17.31,3.92-2.95.76-4,2.94-4,6.1.1,34.63-.11,69.26.1,103.89.11,16,13.73,29.95,29.74,30.61q13.88.48,27.77,0C278.22,329,292,315.23,292.06,299c.21-34.08.1-68.17,0-102.26,0-5-2.84-6.64-7.3-4.25-4.9,2.72-7,7.3-7.52,12.53-.87,8.82-1.19,17.75-2.17,26.46-.55,5.23-2.84,10-8.28,11.76-1.74.55-4.14-.65-6.21-1.09a54.74,54.74,0,0,1,2.61-5.66c1.42-2.39,3.71-4.36,4.47-6.86.87-2.83.33-6.1.54-9.15C269.08,209.16,268.42,197.61,277.14,187.81Zm-81.25-82.44c-5.77,1-11,2.06-16.34,2.83-14.92,2.18-24,10.23-25.7,25.59-2,18.19-8.71,34.2-20.91,48a47.82,47.82,0,0,0-3.59,5.44c-4.9,8.06-4.9,16.12,0,24.07,3.16,5,6.64,10,10.23,14.71a62.59,62.59,0,0,1,12.31,29.18c.87,5.56,2.07,11,3.38,16.45,2,7.62,6.42,13.61,14.16,15.9,8.38,2.5,17.09,4,26.24,6.1C195.89,230.61,195.89,168.53,195.89,105.37Zm91.26,69.7c.66,0,1.42.11,2.07.11.88-4.14,2.62-8.17,2.62-12.31.22-22.11.22-44.33.11-66.44a28.64,28.64,0,0,0-28.54-28.86c-9.8-.21-19.6-.1-29.4,0-17.43.11-29.73,12.42-29.84,29.84v79.51a46.24,46.24,0,0,0,.43,5c18.73-6.1,37.47-6.75,57.83-5.12a61.93,61.93,0,0,1-5.44-4.68c-3.92-4.14-8.39-8.06-11.55-12.86a14.8,14.8,0,0,1-1.85-10.67c2.18-7.95,8.71-11.76,16.45-13.18,6.75-1.19,10.78,3.16,14,8.28a53.06,53.06,0,0,1,4.24,8.71C281.49,159.82,284.32,167.44,287.15,175.07Zm13.29,22.65v93.77c22.65-.22,31.8-7.62,35.94-29.08.11-.76.22-1.41.33-2.18,1.74-14.16,6.53-27,16.44-37.68a95.62,95.62,0,0,0,9.8-13.07c4.47-6.64,4.58-13.72,0-20.36a135.87,135.87,0,0,0-9.36-12.64c-7.62-8.82-13.51-18.29-15.58-29.95-1-5.66-1.85-11.43-3.26-17-3.92-15.35-18-24.39-34-22.11V153c2.61-2.18,4.35-3.92,6.42-5.45,6.86-5,13.07-4.57,18.52,1,6.42,6.54,7.51,14.16,1.52,20.26-4.46,4.57-10,8.17-15.46,11.76-3.6,2.4-7.63,3.92-11.44,5.77.22.77.22,1.2.44,1.42a22.7,22.7,0,0,0,2.5,2.07,24.35,24.35,0,0,1,10.24,19.49c.11,3.6-.11,7.41.76,10.79,1.2,4.79,3.27,9.25,4.69,13.94.54,1.74.21,3.81.32,5.77-2.07-.33-5.12.22-6.1-1-2.5-2.94-5-6.54-5.77-10.24-1.2-5.55-1-11.43-1.31-17.21C305.78,206.76,305.34,202,300.44,197.72ZM278,176.59c.43-.22.87-.54,1.3-.76-4-9.69-7.73-19.6-12.09-29.08-2.39-5.12-6-5.12-12.3-1.09-4.69,2.94-5.67,6.21-2.29,10.89C259.06,165.59,268.42,171.26,278,176.59Zm22.87,1.09c4.24-2.18,8.6-3.92,12.41-6.42a37.58,37.58,0,0,0,8.72-7.85c2.39-2.94,1.3-6.53-1.53-8.6-2.07-1.42-5.44-2.83-7.41-2.07C305.89,155.25,299.24,169.19,300.88,177.68Z"/></g></g></g></g></g></svg>