<svg width="333" height="173" viewBox="0 0 333 173" version="1.1" xmlns="http://www.w3.org/2000/svg" xmlns:xlink="http://www.w3.org/1999/xlink">
<g id="Canvas" fill="none">
<g id="Group">
<g id="Vector">
<path d="M 222.49 111.245C 222.49 172.684 172.684 222.49 111.245 222.49C 49.806 222.49 1.24447e-06 172.684 1.24447e-06 111.245C 1.24447e-06 49.806 49.806 -3.11118e-07 111.245 -3.11118e-07C 172.684 -3.11118e-07 222.49 49.806 222.49 111.245Z" stroke-width="6" stroke-miterlimit="10" stroke-linecap="round" stroke-linejoin="round" transform="matrix(1 -1.19392e-08 1.19392e-08 1 57.5527 21.6328)" stroke="#FEFBF8"/>
</g>
<g id="Vector_2">
<path d="M 0 0L 0 41.7576" stroke-width="6" stroke-miterlimit="10" stroke-linecap="round" stroke-linejoin="round" transform="matrix(1 -1.19392e-08 1.19392e-08 1 3.40039 3.35547)" stroke="#FEFBF8"/>
</g>
<g id="Vector_3">
<path d="M -1.90735e-07 0L -1.90735e-07 41.7576" stroke-width="6" stroke-miterlimit="10" stroke-linecap="round" stroke-linejoin="round" transform="matrix(1 -1.19392e-08 1.19392e-08 1 15.4688 3.35547)" stroke="#FEFBF8"/>
</g>
<g id="Vector_4">
<path d="M 0 0L 0 41.7576" stroke-width="6" stroke-miterlimit="10" stroke-linecap="round" stroke-linejoin="round" transform="matrix(1 -1.19392e-08 1.19392e-08 1 29.5 3.35938)" stroke="#FEFBF8"/>
</g>
<g id="Vector_5">
<path d="M 0 0L 0 41.7576" stroke-width="6" stroke-miterlimit="10" stroke-linecap="round" stroke-linejoin="round" transform="matrix(1 -1.19392e-08 1.19392e-08 1 42.5488 3.35547)" stroke="#FEFBF8"/>
</g>
<g id="Vector_6">
<path d="M 43.0625 179.427L 19.5739 179.427C 8.80824 179.427 0 170.293 0 159.201L 0 20.2263C 0 9.13447 8.80824 -1.24447e-06 19.5739 -1.24447e-06L 43.0625 -1.24447e-06C 53.8281 -1.24447e-06 62.6364 9.13447 62.6364 20.2263L 62.6364 159.201C 62.6364 170.293 54.1543 179.427 43.0625 179.427Z" stroke-width="6" stroke-miterlimit="10" stroke-linecap="round" stroke-linejoin="round" transform="matrix(1 -1.19392e-08 1.19392e-08 1 137.154 43.8047)" stroke="#FEFBF8"/>
</g>
<g id="Vector_7">
<path d="M -4.97789e-06 14.0279C -4.97789e-06 6.52462 14.0279 0 31.3182 0C 48.6084 0 62.6363 6.19839 62.6363 14.0279" stroke-width="6" stroke-miterlimit="10" stroke-linecap="round" stroke-linejoin="round" transform="matrix(1 -1.19392e-08 1.19392e-08 1 137.48 120.801)" stroke="#FEFBF8"/>
</g>
<g id="Vector_8">
<path d="M 8.53233 0.741374C 6.57494 1.39384 4.29132 2.37253 2.66017 3.67745C 1.02902 4.98237 -0.275906 7.266 0.0503248 9.54961C 0.376556 12.4857 17.6668 28.7972 20.6029 30.7546C 23.2127 32.3858 25.4963 34.3432 28.1062 35.9743C 26.8013 24.23 22.5603 13.1381 16.0356 3.35122C 15.057 2.0463 14.0783 0.41514 12.4471 0.0889093C 11.1422 -0.237322 9.83725 0.415143 8.53233 0.741374Z" stroke-width="6" stroke-miterlimit="10" stroke-linecap="round" stroke-linejoin="round" transform="matrix(1 -1.19392e-08 1.19392e-08 1 171.357 92.332)" stroke="#FEFBF8"/>
</g>
<g id="Vector_9">
<path d="M 15.3329 0.652463C 16.964 1.30493 18.5952 1.95738 19.9001 2.93608C 21.205 3.91477 22.1837 5.87216 21.8575 7.50331C 21.5313 9.78693 7.82955 22.8362 5.87216 24.1411C 3.91478 25.446 1.95738 26.7509 -4.97789e-06 28.3821C 0.978688 19.2476 4.56723 10.1132 9.4607 2.60985C 10.1132 1.63116 11.0919 0.32623 12.3968 -1.24447e-06C 13.3755 -1.24447e-06 14.3542 0.326232 15.3329 0.652463Z" stroke-width="6" stroke-miterlimit="10" stroke-linecap="round" stroke-linejoin="round" transform="matrix(1 -1.19392e-08 1.19392e-08 1 201.096 99.2617)" stroke="#FEFBF8"/>
</g>
<g id="Vector_10">
<path d="M 24.4673 43.715L 14.0279 43.715C 14.0279 43.715 2.93608 31.9706 0 6.22236e-07L 39.1477 6.22236e-07C 36.8641 31.9706 24.4673 43.715 24.4673 43.715Z" stroke-width="6" stroke-miterlimit="10" stroke-linecap="round" stroke-linejoin="round" transform="matrix(1 -1.19392e-08 1.19392e-08 1 3.40234 45.1172)" stroke="#FEFBF8"/>
</g>
<g id="Vector_11">
<path d="M 23.4886 1.30492L 23.4886 119.401L 11.7443 119.401C 11.7443 119.401 9.95578e-06 76.338 9.95578e-06 61.6576C 9.95578e-06 34.5805 15.3329 9.13447 21.205 0.326231C 21.8575 -0.326231 23.4886 -1.94449e-07 23.4886 1.30492Z" stroke-width="6" stroke-miterlimit="10" stroke-linecap="round" stroke-linejoin="round" transform="matrix(1 -1.19392e-08 1.19392e-08 1 301.25 4.65625)" stroke="#FEFBF8"/>
</g>
<g id="Vector_12">
<path d="M 20.8788 2.48894e-06C 17.9427 5.2197 15.0066 10.4394 11.7443 15.6591C 10.4394 17.6165 9.4607 19.9001 8.482 22.1837C 7.50331 25.1198 7.17708 28.7083 6.19838 31.6444C 5.21969 34.5805 3.26231 37.8428 2.48895e-06 38.4953" stroke-width="6" stroke-miterlimit="10" stroke-linecap="round" stroke-linejoin="round" transform="matrix(1 -1.19392e-08 1.19392e-08 1 176.951 127.977)" stroke="#FEFBF8"/>
</g>
<g id="Vector_13">
<path d="M 10.1132 164.094C 4.56723 164.094 3.11118e-07 160.506 3.11118e-07 156.265L 4.56723 2.48894e-06L 15.0066 2.48894e-06L 19.9001 156.265C 20.2263 160.506 15.6591 164.094 10.1132 164.094Z" stroke-width="6" stroke-miterlimit="10" stroke-linecap="round" stroke-linejoin="round" transform="matrix(1 -1.19392e-08 1.19392e-08 1 12.8613 88.8281)" stroke="#FEFBF8"/>
</g>
<g id="Vector_14">
<path d="M 10.1132 130.166C 4.56724 130.166 9.95578e-06 127.556 9.95578e-06 123.968L 4.56722 -4.97789e-06L 15.0066 -4.97789e-06L 19.9001 123.968C 19.9001 127.23 15.3329 130.166 10.1132 130.166Z" stroke-width="6" stroke-miterlimit="10" stroke-linecap="round" stroke-linejoin="round" transform="matrix(1 -1.19392e-08 1.19392e-08 1 309.406 122.766)" stroke="#FEFBF8"/>
</g>
<g id="Vector_15">
<path d="M 3.11118e-07 0L 18.9214 0" stroke-width="6" stroke-miterlimit="10" stroke-linecap="round" stroke-linejoin="round" transform="matrix(1 -1.19392e-08 1.19392e-08 1 12.8633 88.1797)" stroke="#FEFBF8"/>
</g>
<g id="Vector_16">
<path d="M 9.95578e-06 -7.62939e-07L 18.5952 -7.62939e-07" stroke-width="6" stroke-miterlimit="10" stroke-linecap="round" stroke-linejoin="round" transform="matrix(1 -1.19392e-08 1.19392e-08 1 309.41 123.414)" stroke="#FEFBF8"/>
</g>
<g id="Vector_17">
<path d="M 52.5232 149.74C 49.9133 144.194 45.6723 143.215 43.3887 142.889C 28.3821 141.258 15.9853 129.187 15.9853 113.202C 15.9853 111.571 15.9853 109.94 16.3115 108.635C 16.6378 106.025 15.6591 103.415 13.7017 102.11C 5.54592 96.8906 1.24447e-06 87.4299 1.24447e-06 76.338C 1.24447e-06 65.5724 5.54592 55.7855 13.7017 50.5658C 15.9853 49.2609 16.964 46.651 16.6378 44.0412C 16.3116 42.41 16.3115 40.7789 16.3115 39.1477C 16.3115 23.1624 26.7509 15.3329 40.7789 9.4607C 45.0199 7.82954 49.5871 7.17708 52.8494 2.48894e-06" stroke-width="6" stroke-miterlimit="10" stroke-linecap="round" stroke-linejoin="round" transform="matrix(1 -1.19392e-08 1.19392e-08 1 85.2832 57.8398)" stroke="#FEFBF8"/>
</g>
<g id="Vector_18">
<path d="M 0.652464 149.74C 3.26231 144.194 7.50331 143.215 9.78693 142.889C 25.1198 141.258 37.1903 129.187 37.1903 113.202C 37.1903 111.571 37.1903 109.94 36.8641 108.635C 36.5379 106.025 37.5166 103.415 39.8002 102.11C 48.2822 96.8906 53.8281 87.4299 53.8281 76.338C 53.8281 65.5724 48.2822 55.7855 39.8002 50.5658C 37.5166 49.2609 36.5379 46.651 36.8641 44.0412C 37.1903 42.41 37.1903 40.7789 37.1903 39.1477C 37.1903 23.1624 26.751 15.3329 12.3968 9.4607C 8.15578 7.82954 3.58854 7.17708 0 2.48894e-06" stroke-width="6" stroke-miterlimit="10" stroke-linecap="round" stroke-linejoin="round" transform="matrix(1 -1.19392e-08 1.19392e-08 1 199.139 57.832)" stroke="#FEFBF8"/>
</g>
<g id="Vector_19">
<path d="M 0 2.48894e-06C 1.63115 0.652464 2.28362 1.95739 2.93608 3.26231C 5.87216 8.80824 7.82955 14.6804 8.80824 20.5526C 9.13447 22.1837 9.46069 24.1411 10.1132 25.7722C 11.0918 27.4034 12.723 29.0346 15.0066 29.687" stroke-width="6" stroke-miterlimit="10" stroke-linecap="round" stroke-linejoin="round" transform="matrix(1 -1.19392e-08 1.19392e-08 1 200.77 127.977)" stroke="#FEFBF8"/>
</g>
</g>
</g>
</svg>

