<svg xmlns="http://www.w3.org/2000/svg" xmlns:xlink="http://www.w3.org/1999/xlink" viewBox="0 0 299 303"><defs><style>.cls-1{fill:#fff;}.cls-2{mask:url(#mask);}.cls-3{fill:#f5e2ce;fill-opacity:0.15;}</style><mask id="mask" x="0" y="-751" width="299" height="1054" maskUnits="userSpaceOnUse"><g id="mask6"><g id="Rectangle_5" data-name="Rectangle 5"><rect class="cls-1" x="10" y="-751" width="280" height="991"/></g></g></mask></defs><title>fish-white</title><g id="Слой_2" data-name="Слой 2"><g id="Слой_1-2" data-name="Слой 1"><g id="Mask_Group_7" data-name="Mask Group_7"><g class="cls-2"><g id="Group_35" data-name="Group 35"><g id="Group_36" data-name="Group 36"><g id="Vector_49" data-name="Vector 49"><path class="cls-3" d="M132.41,74.51A8.58,8.58,0,0,0,136,78.06a10.34,10.34,0,0,0,5,1.42c3.55,0,6.4-2.13,8.54-5s2.13-6.39,0-9.93A8.58,8.58,0,0,0,145.94,61c-5-2.13-10.68-.71-12.82,3.55A10.08,10.08,0,0,0,132.41,74.51Z"/></g><g id="Group_37" data-name="Group 37"><g id="Vector_50" data-name="Vector 50"><path class="cls-3" d="M155.91,190.18c9.26-10.65,36.31-46.13,36.31-88.7,0-50.39-37.73-90.12-39.16-92.25L149.5,5l-3.56,4.26c-1.42,1.42-39.15,41.86-39.15,92.25,0,42.57,26.34,77.34,35.6,88-9.26,10.64-35.6,45.41-35.6,100V303l9.25-9.93s19.94-20.58,42-20.58c12.81,0,26.34,9.93,26.34,9.93l9.25,6.39-1.42-10.64C189.37,234.17,165.17,200.82,155.91,190.18ZM148.79,21.29c7.83,9.23,24.92,33.35,30.61,61.74-5.69,3.54-17.08,9.93-32,9.93S123.16,87.28,118.18,83C123.88,54.64,141.67,30.52,148.79,21.29Zm-32,73.8c6.4,4.26,17.08,8.51,30.61,8.51,14.95,0,26.34-5,34.17-9.22v7.1c0,36.89-23.49,68.83-32.75,80.18C139.54,170.31,116,138.37,116,101.48A19.4,19.4,0,0,0,116.76,95.09Zm40.58,167.47c-16.38,0-31.33,8.51-39.87,15.61C121,236.3,141,207.92,149.5,198c7.84,9.94,27.06,36.9,31.33,71A50.26,50.26,0,0,0,157.34,262.56Z"/></g><g id="Vector_51" data-name="Vector 51"><path class="cls-3" d="M86.85,14.19,77.6,20.58s-13.53,9.93-26.34,9.93c-22.07,0-42-20.58-42-20.58L0,0V13.48c0,54.64,26.34,89.41,35.6,100.06C26.34,124.89,0,159.66,0,201.53c0,50.38,37.73,90.12,39.15,92.25L42.71,298l3.56-4.25c1.43-1.42,39.16-41.87,39.16-92.25,0-42.58-27.05-77.35-36.31-88.7,8.54-10.65,33.46-44,36.31-88ZM42.71,282.42C34.88,273.2,17.8,249.07,12.1,220c4.27-3.55,14.24-9.94,29.19-9.94a58.31,58.31,0,0,1,32,9.94C67.63,249.07,50.55,272.49,42.71,282.42Zm32.75-73.8c-7.83-4.25-19.22-9.22-34.17-9.22a58.2,58.2,0,0,0-30.61,8.51v-6.38c0-36.9,23.49-68.83,32.75-80.19,9.25,11.36,32.74,43.29,32.74,80.19A26.56,26.56,0,0,0,75.46,208.62ZM42.71,105c-8.54-9.93-28.47-37.61-32-80.18,9.25,7.09,23.49,15.61,39.87,15.61,8.54,0,17.08-3.55,23.49-6.39C69.77,68.83,50.55,95.09,42.71,105Z"/></g><g id="Vector_52" data-name="Vector 52"><path class="cls-3" d="M43.42,228.49a10.23,10.23,0,0,0-12.81-3.55,7.26,7.26,0,0,0-4.27,3.55,12,12,0,0,0,0,9.93,11.12,11.12,0,0,0,8.54,4.26c1.42,0,2.85-.71,5-1.42,1.43,0,2.85-1.42,3.56-3.55C45.56,234.87,44.85,231.32,43.42,228.49Z"/></g><g id="Vector_53" data-name="Vector 53"><path class="cls-3" d="M299,14.19l-9.25,6.39c-3.56,2.84-15.66,9.93-26.34,9.93-22.07,0-42-20.58-42-20.58L212.15,0V13.48c0,54.64,26.34,89.41,35.6,100.06-9.26,11.35-35.6,46.12-35.6,88,0,50.38,37.73,90.12,39.15,92.25l3.56,4.25,3.56-4.25c1.43-1.42,39.16-41.87,39.16-92.25,0-42.58-27.05-77.35-36.31-88.7,8.54-10.65,33.46-44,36.31-88ZM254.86,282.42C247,273.2,230,249.07,224.25,220c4.27-3.55,14.24-9.94,29.19-9.94a58.31,58.31,0,0,1,32,9.94C280.49,249.07,262.7,272.49,254.86,282.42Zm32.75-73.8c-7.83-4.25-19.22-9.22-34.17-9.22a58.2,58.2,0,0,0-30.61,8.51v-6.38c0-36.9,23.49-68.83,32.75-80.19,9.25,11.36,32.74,43.29,32.74,80.19A26.56,26.56,0,0,0,287.61,208.62ZM254.86,105c-8.54-9.93-28.47-38.32-32-80.18,9.25,7.09,23.49,15.61,39.87,15.61,8.54,0,17.08-3.55,23.49-6.39C281.92,68.83,263.41,95.09,254.86,105Z"/></g><g id="Vector_54" data-name="Vector 54"><path class="cls-3" d="M255.57,228.49a10.23,10.23,0,0,0-12.81-3.55,8.52,8.52,0,0,0-3.56,3.55,12,12,0,0,0,0,9.93c2.13,2.84,5,5,8.54,5,1.42,0,2.85-.71,5-1.42a8.52,8.52,0,0,0,3.56-3.55C257.71,234.87,257.71,231.32,255.57,228.49Z"/></g></g></g></g></g></g></g></g></svg>