<svg xmlns="http://www.w3.org/2000/svg" viewBox="0 0 327.36 332.3"><defs><style>.cls-1{fill:#f5e2ce;fill-opacity:0.3;}</style></defs><title>fish</title><g id="Слой_2" data-name="Слой 2"><g id="Слой_1-2" data-name="Слой 1"><g id="Group_104" data-name="Group 104"><g id="Group_105" data-name="Group 105"><g id="Vector_102" data-name="Vector 102"><path class="cls-1" d="M145,81.71a9.41,9.41,0,0,0,3.89,3.89,11.27,11.27,0,0,0,5.46,1.56c3.9,0,7-2.34,9.35-5.45s2.34-7,0-10.9a9.47,9.47,0,0,0-3.89-3.89c-5.46-2.33-11.7-.78-14,3.89C143.42,74.7,143.42,78.6,145,81.71Z"/></g><g id="Group_106" data-name="Group 106"><g id="Vector_103" data-name="Vector 103"><path class="cls-1" d="M170.69,208.56c10.13-11.67,39.75-50.58,39.75-97.27,0-55.26-41.31-98.84-42.87-101.17l-3.89-4.67-3.9,4.67c-1.56,1.56-42.87,45.91-42.87,101.17,0,46.69,28.84,84.82,39,96.49-10.13,11.68-39,49.81-39,109.73V332.3L127,321.4s21.83-22.57,46-22.57c14,0,28.84,10.9,28.84,10.9l10.13,7-1.56-11.67C207.32,256.81,180.82,220.23,170.69,208.56ZM162.9,23.35c8.57,10.12,27.28,36.57,33.51,67.7-6.23,3.89-18.7,10.9-35.07,10.9s-26.5-6.23-32-10.9C135.62,59.92,155.1,33.47,162.9,23.35Zm-35.08,80.93c7,4.67,18.71,9.34,33.52,9.34,16.37,0,28.84-5.45,37.41-10.12v7.79c0,40.46-25.72,75.48-35.85,87.93C152.76,186.77,127,151.75,127,111.29A21.53,21.53,0,0,0,127.82,104.28Zm44.43,183.66c-17.93,0-34.3,9.34-43.65,17.12,3.9-45.91,25.72-77,35.08-87.94,8.57,10.9,29.61,40.47,34.29,77.82A55,55,0,0,0,172.25,287.94Z"/></g><g id="Vector_104" data-name="Vector 104"><path class="cls-1" d="M95.09,15.56,85,22.57S70.15,33.46,56.12,33.46c-24.16,0-46-22.57-46-22.57L0,0V14.79c0,59.92,28.84,98.05,39,109.72C28.84,137,0,175.1,0,221c0,55.25,41.31,98.83,42.87,101.17l3.9,4.67,3.89-4.67c1.56-1.56,42.87-45.92,42.87-101.17,0-46.69-29.62-84.82-39.75-97.27,9.35-11.68,36.63-48.25,39.75-96.5ZM46.77,309.73c-8.58-10.12-27.28-36.58-33.52-68.49,4.68-3.89,15.59-10.89,32-10.89a63.72,63.72,0,0,1,35.07,10.89C74.05,273.15,55.34,298.83,46.77,309.73Zm35.85-80.94c-8.57-4.67-21-10.11-37.41-10.11A63.7,63.7,0,0,0,11.69,228v-7c0-40.47,25.72-75.49,35.86-87.94C57.68,145.52,83.4,180.54,83.4,221A29.12,29.12,0,0,0,82.62,228.79ZM46.77,115.18c-9.36-10.9-31.18-41.25-35.08-87.94C21.82,35,37.41,44.36,55.34,44.36c9.35,0,18.71-3.89,25.72-7C76.38,75.49,55.34,104.28,46.77,115.18Z"/></g><g id="Vector_105" data-name="Vector 105"><path class="cls-1" d="M47.55,250.58a11.21,11.21,0,0,0-14-3.89,8,8,0,0,0-4.68,3.89,13.28,13.28,0,0,0,0,10.9,12.19,12.19,0,0,0,9.35,4.67c1.56,0,3.12-.78,5.46-1.56,1.56,0,3.12-1.55,3.9-3.89C49.88,257.59,49.1,253.7,47.55,250.58Z"/></g><g id="Vector_106" data-name="Vector 106"><path class="cls-1" d="M327.36,15.56l-10.13,7c-3.9,3.11-17.15,10.89-28.84,10.89-24.16,0-46-22.57-46-22.57L232.27,0V14.79c0,59.92,28.84,98.05,39,109.72-10.13,12.45-39,50.59-39,96.5,0,55.25,41.31,98.83,42.87,101.17l3.9,4.67,3.89-4.67c1.56-1.56,42.87-45.92,42.87-101.17,0-46.69-29.62-84.82-39.75-97.27,9.35-11.68,36.63-48.25,39.75-96.5ZM279,309.73c-8.58-10.12-27.28-36.58-33.52-68.49,4.68-3.89,15.59-10.89,32-10.89a63.75,63.75,0,0,1,35.07,10.89C307.1,273.15,287.61,298.83,279,309.73Zm35.85-80.94c-8.57-4.67-21.05-10.11-37.41-10.11A63.7,63.7,0,0,0,244,228v-7c0-40.47,25.72-75.49,35.86-87.94C290,145.52,315.67,180.54,315.67,221A29.12,29.12,0,0,0,314.89,228.79ZM279,115.18c-9.36-10.9-31.18-42-35.08-87.94,10.13,7.78,25.72,17.12,43.65,17.12,9.35,0,18.71-3.89,25.72-7C308.65,75.49,288.39,104.28,279,115.18Z"/></g><g id="Vector_107" data-name="Vector 107"><path class="cls-1" d="M279.82,250.58a11.21,11.21,0,0,0-14-3.89,9.43,9.43,0,0,0-3.9,3.89,13.28,13.28,0,0,0,0,10.9c2.34,3.11,5.46,5.45,9.35,5.45,1.56,0,3.12-.78,5.46-1.56a9.38,9.38,0,0,0,3.9-3.89C282.15,257.59,282.15,253.7,279.82,250.58Z"/></g></g></g></g></g></g></svg>