<svg xmlns="http://www.w3.org/2000/svg" viewBox="0 0 58.91 13.69"><defs><style>.cls-1{fill:#28304a;}</style></defs><title>flat12-logo</title><g id="Слой_2" data-name="Слой 2"><g id="Слой_1-2" data-name="Слой 1"><g id="Group_30" data-name="Group 30"><g id="Group_31" data-name="Group 31"><g id="Vector_36" data-name="Vector 36"><path class="cls-1" d="M10.71,13.48h3.1V.2l-3.1,2.63Z"/></g><g id="Vector_37" data-name="Vector 37"><path class="cls-1" d="M21.68,2.3A6,6,0,0,0,15.39,8a5.78,5.78,0,0,0,5.86,5.67,5.66,5.66,0,0,0,3.62-1.07v.91H28V8.63C28,4.73,25.57,2.3,21.68,2.3Zm0,8.84A3.33,3.33,0,0,1,18.23,8a3.4,3.4,0,0,1,3.45-3A3.09,3.09,0,0,1,25,8,3.16,3.16,0,0,1,21.68,11.14Z"/></g><g id="Vector_38" data-name="Vector 38"><path class="cls-1" d="M35,5.05l1.66-2.5H32.52V.16h-3.1V8.43c0,3.16,2.27,5.22,5.64,5.22h.78V11h-.69a2.39,2.39,0,0,1-2.58-2.55V5H35Z"/></g><g id="Vector_39" data-name="Vector 39"><path class="cls-1" d="M58.91.16H55.37V3.29h3.54Z"/></g><g id="Vector_40" data-name="Vector 40"><path class="cls-1" d="M8.35,2.83,11.45.2H0V13.48H3.1V10.15H8V7.52H3.15V2.83Z"/></g><g id="Vector_41" data-name="Vector 41"><path class="cls-1" d="M49.6,10.12c.83-.83,1.66-1.65,2.45-2.51a4.19,4.19,0,0,0,.61-5.1A4.69,4.69,0,0,0,48.21,0H48a4.85,4.85,0,0,0-4.59,3.25,4.45,4.45,0,0,0,1.75,5.06l2-2L47,6.21A2.09,2.09,0,0,1,46.11,4a2.15,2.15,0,0,1,2.1-1.44A2,2,0,0,1,50.3,4.24a2.45,2.45,0,0,1-.91,2.22c-1.1,1.11-2.19,2.22-3.28,3.29l-.79.78c-.26.29-.57.57-.83.86l-2,2.06H53V10.82H48.82A4.66,4.66,0,0,0,49.6,10.12Z"/></g><g id="Vector_42" data-name="Vector 42"><path class="cls-1" d="M38.64,13.48h3.1V.2l-3.1,2.63Z"/></g></g></g></g></g></svg>