<svg width="21" height="14" viewBox="0 0 21 14" version="1.1" xmlns="http://www.w3.org/2000/svg" xmlns:xlink="http://www.w3.org/1999/xlink">
<g id="Canvas" fill="none">
<g id="if_40-google-plus_843777">
<g id="Group">
<g id="Vector">
<path d="M 6.24848 5.35408C 6.24551 6.0641 6.24848 6.77409 6.25149 7.48407C 7.4418 7.52287 8.63505 7.50494 9.82537 7.52287C 9.30034 10.163 5.70857 11.0192 3.80826 9.29491C 1.85424 7.78242 1.94672 4.46511 3.9783 3.06002C 5.39831 1.9264 7.41793 2.20681 8.8379 3.18829C 9.39579 2.67221 9.91781 2.1203 10.422 1.54753C 9.24064 0.604844 7.79082 -0.066384 6.24848 0.00523218C 3.02963 -0.102172 0.0702874 2.71695 0.016605 5.93584C -0.189257 8.56699 1.54101 11.1475 3.98428 12.0782C 6.41855 13.0149 9.53898 12.3765 11.0932 10.1899C 12.1195 8.80864 12.3402 7.03066 12.2209 5.36006C 10.2281 5.34513 8.23829 5.3481 6.24848 5.35408Z" transform="translate(0.424805 0.59375)" fill="#DD4B3E"/>
</g>
<g id="Vector_2">
<path d="M 3.5858 1.78395C 3.57982 1.19028 3.57685 0.593634 3.57388 9.42361e-08C 2.98021 9.42361e-08 2.38954 9.42361e-08 1.79888 9.42361e-08C 1.7929 0.593674 1.78696 1.18731 1.78395 1.78395C 1.18731 1.78692 0.593634 1.78993 -6.69318e-07 1.79591C -6.69318e-07 2.38954 -6.69318e-07 2.98021 -6.69318e-07 3.57091C 0.593634 3.57689 1.19028 3.58287 1.78395 3.5888C 1.78993 4.18248 1.78993 4.77611 1.79591 5.36979C 2.38958 5.36979 2.98025 5.36979 3.57388 5.36979C 3.57685 4.77611 3.57982 4.18248 3.5858 3.58584C 4.18244 3.57986 4.77611 3.57689 5.36975 3.57091C 5.36975 2.98021 5.36975 2.38657 5.36975 1.79591C 4.77611 1.78993 4.17947 1.78993 3.5858 1.78395Z" transform="translate(14.7266 4.15625)" fill="#DD4B3E"/>
</g>
</g>
</g>
</g>
</svg>

