<svg xmlns="http://www.w3.org/2000/svg" viewBox="0 0 76.62 76.62"><defs><style>.cls-1{fill:#fff;}</style></defs><title>inst-white</title><g id="Слой_2" data-name="Слой 2"><g id="Слой_1-2" data-name="Слой 1"><g id="if_38-instagram_1161953" data-name="if 38-instagram 1161953"><g id="Group_32" data-name="Group 32"><g id="Vector_43" data-name="Vector 43"><path class="cls-1" d="M38.3,18.38A19.78,19.78,0,1,0,58.08,38.15,19.81,19.81,0,0,0,38.3,18.38Zm0,32.44A12.67,12.67,0,1,1,51,38.15,12.72,12.72,0,0,1,38.3,50.82Z"/></g><g id="Vector_44" data-name="Vector 44"><path class="cls-1" d="M58.85,22.39a4.48,4.48,0,1,0-4.48-4.48A4.49,4.49,0,0,0,58.85,22.39Z"/></g><g id="Vector_45" data-name="Vector 45"><path class="cls-1" d="M70.45,6.33C66.43,2.16,60.71,0,54.22,0H22.4C9,0,0,9,0,22.4V54.07C0,60.71,2.16,66.43,6.49,70.6c4.17,4,9.73,6,16.06,6H54.07c6.64,0,12.2-2.16,16.22-6,4.17-4,6.33-9.73,6.33-16.38V22.4C76.62,15.91,74.46,10.35,70.45,6.33Zm-.62,47.89A15.09,15.09,0,0,1,65.35,65.5c-2.78,2.63-6.65,4-11.28,4H22.55c-4.63,0-8.49-1.39-11.27-4C8.5,62.72,7.11,58.86,7.11,54.07V22.4c0-4.63,1.39-8.5,4.17-11.28,2.62-2.62,6.64-4,11.27-4H54.38c4.63,0,8.5,1.39,11.28,4.17A16,16,0,0,1,69.83,22.4Z"/></g></g></g></g></g></svg>