<svg xmlns="http://www.w3.org/2000/svg" viewBox="0 0 35.91 35.91"><defs><style>.cls-1{fill:#28304a;}</style></defs><title>inst-deepblue</title><g id="Слой_2" data-name="Слой 2"><g id="Слой_1-2" data-name="Слой 1"><g id="if_38-instagram_1161953_2" data-name="if 38-instagram 1161953 2"><g id="Group_34" data-name="Group 34"><g id="Vector_46" data-name="Vector 46"><path class="cls-1" d="M18,8.61a9.27,9.27,0,1,0,9.26,9.27A9.29,9.29,0,0,0,18,8.61Zm0,15.2a5.94,5.94,0,1,1,5.93-5.93A6,6,0,0,1,18,23.81Z"/></g><g id="Vector_47" data-name="Vector 47"><path class="cls-1" d="M27.58,10.49a2.1,2.1,0,1,0-2.1-2.1A2.1,2.1,0,0,0,27.58,10.49Z"/></g><g id="Vector_48" data-name="Vector 48"><path class="cls-1" d="M33,3a10.28,10.28,0,0,0-7.6-3H10.5C4.2,0,0,4.2,0,10.5V25.34a10.39,10.39,0,0,0,3,7.74,10.57,10.57,0,0,0,7.53,2.83H25.34a10.69,10.69,0,0,0,7.6-2.83,10.38,10.38,0,0,0,3-7.67V10.5A10.39,10.39,0,0,0,33,3Zm-.29,22.44a7.08,7.08,0,0,1-2.1,5.28,7.48,7.48,0,0,1-5.28,1.89H10.57a7.52,7.52,0,0,1-5.29-1.89,7.27,7.27,0,0,1-1.95-5.35V10.5a7.24,7.24,0,0,1,2-5.29,7.4,7.4,0,0,1,5.29-1.88H25.48a7.25,7.25,0,0,1,5.29,2,7.5,7.5,0,0,1,1.95,5.22Z"/></g></g></g></g></g></svg>