<svg xmlns="http://www.w3.org/2000/svg" viewBox="0 0 200 109"><defs><style>.cls-1{fill:#f1dac2;}.cls-2{fill:#28304a;}</style></defs><title>logo</title><g id="Слой_2" data-name="Слой 2"><g id="Слой_1-2" data-name="Слой 1"><g id="Group_38" data-name="Group 38"><g id="Group_39" data-name="Group 39"><g id="Group_40" data-name="Group 40"><g id="Vector_55" data-name="Vector 55"><path class="cls-1" d="M88.55,94.71,91,92.16s5.25-5.49,11.13-5.49c3.33,0,7,2.55,7,2.55l2.3,1.66-.12-2.81c-.64-11.61-7.17-20.55-9.6-23.36,2.43-2.93,9.6-12.25,9.6-23.48,0-13.4-10-24-10.37-24.38l-1-1-1,1c-.38.38-10.36,11.11-10.36,24.38,0,11.23,7,20.55,9.47,23.48a40.64,40.64,0,0,0-9.47,26.55Zm11.39-74.8c2,2.56,6.65,8.81,8.06,16.47a15.74,15.74,0,0,1-8.57,2.68,12.19,12.19,0,0,1-7.68-2.55C93.28,28.72,97.89,22.47,99.94,19.91ZM91.37,39.57a14.77,14.77,0,0,0,8.06,2.17,17.81,17.81,0,0,0,8.95-2.43c0,.64.13,1.28.13,1.92,0,9.83-6.14,18.25-8.57,21.31-2.43-3.06-8.57-11.48-8.57-21.31Zm8.57,27.19a42.12,42.12,0,0,1,8.44,18.76,15,15,0,0,0-6.14-1.66c-4.35,0-8.19,2.3-10.62,4.21A37.6,37.6,0,0,1,99.94,66.76Z"/></g><g id="Vector_56" data-name="Vector 56"><path class="cls-1" d="M95.59,34.08a3.81,3.81,0,0,0,1,1,2.09,2.09,0,0,0,1.28.26,2.48,2.48,0,0,0,2.18-1.28,2.32,2.32,0,0,0,0-2.55,3.84,3.84,0,0,0-1-1,2.59,2.59,0,0,0-3.45.89A3.21,3.21,0,0,0,95.59,34.08Z"/></g><g id="Vector_57" data-name="Vector 57"><path class="cls-1" d="M70.76,92.28l1,1,1-1c.38-.38,10.36-11.1,10.36-24.37,0-11.24-7-20.55-9.59-23.49,2.3-2.81,9-11.74,9.59-23.36l.13-2.93-2.43,1.66a14,14,0,0,1-7,2.55c-5.88,0-11.13-5.49-11.13-5.49L60.27,14.3v3.45a40.63,40.63,0,0,0,9.47,26.54c-2.43,2.94-9.47,12.26-9.47,23.49C60.4,81.18,70.38,91.77,70.76,92.28Zm1-3.19c-2.05-2.55-6.66-8.8-8.19-16.59A12.18,12.18,0,0,1,71.27,70a15.75,15.75,0,0,1,8.58,2.68C78.44,80.41,73.83,86.67,71.79,89.09ZM74,25.15a14.4,14.4,0,0,0,6.14-1.66,40.2,40.2,0,0,1-8.44,18.76,38,38,0,0,1-8.45-21.31C65.77,22.85,69.61,25.15,74,25.15ZM71.79,46.46c2.43,3.07,8.57,11.49,8.57,21.32a9.39,9.39,0,0,1-.13,1.91,18.27,18.27,0,0,0-9-2.42,16,16,0,0,0-8.06,2.17V67.78C63.21,58,69.36,49.53,71.79,46.46Z"/></g><g id="Vector_58" data-name="Vector 58"><path class="cls-1" d="M71.91,74.79a2.59,2.59,0,0,0-3.45-.89,3.84,3.84,0,0,0-1,1,2.59,2.59,0,0,0,.13,2.55,2.63,2.63,0,0,0,2.18,1.28A4.56,4.56,0,0,0,71,78.49a4,4,0,0,0,1-1A2.85,2.85,0,0,0,71.91,74.79Z"/></g><g id="Vector_59" data-name="Vector 59"><path class="cls-1" d="M127.06,92.28l1,1,1-1c.38-.38,10.36-11.1,10.36-24.37,0-11.24-7-20.55-9.59-23.49,2.3-2.81,9-11.74,9.59-23.36l.13-2.93-2.43,1.66a14,14,0,0,1-7,2.55c-5.88,0-11.13-5.49-11.13-5.49l-2.43-2.55v3.45A40.63,40.63,0,0,0,126,44.29c-2.43,2.94-9.47,12.26-9.47,23.49C116.7,81.18,126.68,91.77,127.06,92.28Zm1-3.19c-2-2.55-6.66-8.8-8.19-16.59A12.18,12.18,0,0,1,127.57,70a15.75,15.75,0,0,1,8.58,2.68C134.74,80.41,130.13,86.67,128.09,89.09Zm2.17-63.94a14.4,14.4,0,0,0,6.14-1.66c-1.28,8.93-6.27,16.08-8.44,18.76a38,38,0,0,1-8.45-21.31C122.07,22.85,125.91,25.15,130.26,25.15Zm-2.17,21.31c2.43,3.07,8.57,11.49,8.57,21.32a9.39,9.39,0,0,1-.13,1.91,18.27,18.27,0,0,0-9-2.42,16,16,0,0,0-8.06,2.17V67.78C119.51,58,125.66,49.53,128.09,46.46Z"/></g><g id="Vector_60" data-name="Vector 60"><path class="cls-1" d="M128.21,74.79a2.59,2.59,0,0,0-3.45-.89,3.84,3.84,0,0,0-1,1,2.59,2.59,0,0,0,.13,2.55A2.63,2.63,0,0,0,126,78.75a4.56,4.56,0,0,0,1.28-.26,4,4,0,0,0,1-1A2.85,2.85,0,0,0,128.21,74.79Z"/></g><g id="Vector_61" data-name="Vector 61"><path class="cls-1" d="M45.3,0V109H154.58V0ZM151.89,106.19H48.12V2.81H151.89Z"/></g></g><g id="Group_41" data-name="Group 41"><g id="Group_42" data-name="Group 42"><g id="Group_43" data-name="Group 43"><g id="Vector_62" data-name="Vector 62"><path class="cls-2" d="M114.26,61.39V51.18h-3.45V68.54h.9l10.74-10.08V68.54h3.46V51.18H125Z"/></g></g><g id="Group_44" data-name="Group 44"><g id="Vector_63" data-name="Vector 63"><path class="cls-2" d="M43.37,52.45h-15a7.41,7.41,0,1,0,0,14.81h15a7.42,7.42,0,0,0,7.42-7.41A7.33,7.33,0,0,0,43.37,52.45Zm0,11.36h-15a4,4,0,1,1,0-7.91h15a4,4,0,1,1,0,7.91Z"/></g></g><g id="Group_45" data-name="Group 45"><g id="Vector_64" data-name="Vector 64"><path class="cls-2" d="M168.91,50.29,158.8,68.67h4l1.92-3.57a11.49,11.49,0,0,0,4.09.63A9.59,9.59,0,0,0,173,65l1.92,3.57h4L176,63.31a6.65,6.65,0,0,1,4-1V58.84a10.31,10.31,0,0,0-5.63,1.41Zm-.13,12a10.28,10.28,0,0,1-2.3-.26l2.43-4.46L171.34,62A14.24,14.24,0,0,1,168.78,62.29Z"/></g></g><g id="Group_46" data-name="Group 46"><g id="Vector_65" data-name="Vector 65"><path class="cls-2" d="M14.33,51.18H9.6L3.45,57.82V51.18H0V68.67H3.45V63.05L5.5,60.88l4.86,7.79h4.1L7.93,58.2Z"/></g></g><g id="Group_47" data-name="Group 47"><g id="Vector_66" data-name="Vector 66"><path class="cls-2" d="M74.85,51.18l-6.39,6.89-6.27-6.89h-.9L60,68.67h3.45l.77-10.09,4.23,4.6,4.35-4.6.76,10.09H77L75.75,51.18Z"/></g></g><g id="Group_48" data-name="Group 48"><g id="Vector_67" data-name="Vector 67"><path class="cls-2" d="M148.17,60H140V51.18h-3.45V68.67H140V63.43h8.19v5.24h3.46V51.18h-3.46Z"/></g></g><g id="Group_49" data-name="Group 49"><g id="Vector_68" data-name="Vector 68"><path class="cls-2" d="M184.77,51.18v3.57h5.89V68.67h3.45V54.75H200V51.18Z"/></g></g><g id="Group_50" data-name="Group 50"><g id="Vector_69" data-name="Vector 69"><path class="cls-2" d="M101.21,60.75a5.15,5.15,0,0,0-4.48-2.56h-6.4V54.75h9.35V51.3H86.88V68.66h9.85A5.18,5.18,0,0,0,102,63.43,4.69,4.69,0,0,0,101.21,60.75Zm-4.48,4.46h-6.4V61.77h6.4a1.82,1.82,0,0,1,1.79,1.78A1.91,1.91,0,0,1,96.73,65.21Z"/></g></g></g><g id="Group_51" data-name="Group 51"><g id="Group_52" data-name="Group 52"><g id="Group_53" data-name="Group 53"><g id="Group_54" data-name="Group 54"><g id="Vector_70" data-name="Vector 70"><path class="cls-2" d="M50.16,37.91a13.09,13.09,0,0,0,2.05-.76c1.15-.39,2.17,0,2.43,1s-.39,1.91-1.41,2.29a5.68,5.68,0,0,0-.77.26c.26.51.26.89.52,1.4-.39.13-.64.26-1,.39A48.28,48.28,0,0,1,50.16,37.91ZM53,39.57a.83.83,0,0,0,.63-1c-.12-.51-.63-.64-1.15-.38s-.51.12-.89.25c.25.51.25.9.51,1.41A2.42,2.42,0,0,0,53,39.57Z"/></g></g></g><g id="Group_55" data-name="Group 55"><g id="Group_56" data-name="Group 56"><g id="Vector_71" data-name="Vector 71"><path class="cls-2" d="M56.43,35.86a9.68,9.68,0,0,1,1.15-.38c.26.63.26,1,.51,1.66.39-.13.64-.13,1-.26a1.66,1.66,0,0,1,2.3,1c.26,1-.26,1.79-1.41,2.17-.76.26-1.28.38-2,.64C57.33,38.67,57.07,37.77,56.43,35.86ZM58.35,38c.13.51.26.76.38,1.28.39-.13.64-.13,1-.26s.76-.51.64-.89-.52-.51-1-.39A3,3,0,0,0,58.35,38ZM61,34.46c.38-.13.64-.13,1.15-.26.51,1.91.77,2.81,1.28,4.72-.39.13-.64.13-1,.26C61.93,37.39,61.68,36.37,61,34.46Z"/></g></g></g><g id="Group_57" data-name="Group 57"><g id="Group_58" data-name="Group 58"><g id="Vector_72" data-name="Vector 72"><path class="cls-2" d="M66.54,35c.52-.13.77-.13,1.28-.26,1.15-.26,1.92.26,2.05,1.15s-.38,1.66-1.54,1.91c-.89.26-1.4.26-2.3.51-.51-1.91-.77-2.93-1.15-4.85,1.54-.38,2.3-.51,4-.89.12.38.12.64.25,1l-2.81.64C66.42,34.46,66.42,34.72,66.54,35Zm.26.89c.13.51.13.76.26,1.15.51-.13.76-.13,1.15-.26s.76-.38.64-.76-.39-.51-.9-.39S67.18,35.74,66.8,35.87Z"/></g></g></g><g id="Group_59" data-name="Group 59"><g id="Group_60" data-name="Group 60"><g id="Vector_73" data-name="Vector 73"><path class="cls-2" d="M73.32,31.65a2.76,2.76,0,0,1,1-.13c1.28,1.79,1.79,2.68,3.07,4.59a3.48,3.48,0,0,1-1.15.13c-.25-.38-.38-.64-.64-1-.89.13-1.28.26-2.17.38-.13.51-.13.77-.26,1.15-.38.13-.64.13-1.15.26C72.55,34.84,72.81,33.82,73.32,31.65Zm1.79,2.68a5.59,5.59,0,0,0-1-1.41c-.13.64-.26,1-.39,1.66C74.22,34.46,74.47,34.46,75.11,34.33Z"/></g></g></g><g id="Group_61" data-name="Group 61"><g id="Group_62" data-name="Group 62"><g id="Vector_74" data-name="Vector 74"><path class="cls-2" d="M87.65,34.71a3.88,3.88,0,0,0-1.15.13c-.13-1.28-.13-1.92-.26-3.19-.76,1.4-1.15,2-1.92,3.44-.38,0-.64.13-1,.13-.26-1.91-.38-2.93-.64-4.85.51,0,.64-.13,1.15-.13.13,1.28.26,1.92.39,3.19.76-1.4,1.15-2,1.91-3.44a2.81,2.81,0,0,0,1-.13C87.39,31.77,87.52,32.8,87.65,34.71Z"/></g></g></g><g id="Group_63" data-name="Group 63"><g id="Group_64" data-name="Group 64"><g id="Vector_75" data-name="Vector 75"><path class="cls-2" d="M93.92,29.36h1.15a9.39,9.39,0,0,0,.13,1.91h2V29.36H98.4c0,1.91,0,2.94.13,5H97.37v-2h-2a11.52,11.52,0,0,0,.13,2H94.3A33.4,33.4,0,0,1,93.92,29.36Z"/></g></g></g><g id="Group_65" data-name="Group 65"><g id="Group_66" data-name="Group 66"><g id="Vector_76" data-name="Vector 76"><path class="cls-2" d="M101.09,29.23c1.54,0,2.3,0,4,.13v1h-2.82v1h2.43v1h-2.43v1h2.82v1c-1.54,0-2.31,0-3.84-.12C101.09,32.17,101.09,31.27,101.09,29.23Z"/></g></g></g><g id="Group_67" data-name="Group 67"><g id="Group_68" data-name="Group 68"><g id="Vector_77" data-name="Vector 77"><path class="cls-2" d="M112.61,30.76c-.64,0-.9-.13-1.54-.13a2.76,2.76,0,0,1,.13-1c1.79.13,2.56.26,4.35.38a2.73,2.73,0,0,1-.13,1,6.63,6.63,0,0,0-1.53-.12c-.13,1.53-.26,2.29-.39,4a4.19,4.19,0,0,1-1.15-.12C112.48,33.06,112.48,32.29,112.61,30.76Z"/></g></g></g><g id="Group_69" data-name="Group 69"><g id="Group_70" data-name="Group 70"><g id="Vector_78" data-name="Vector 78"><path class="cls-2" d="M117.08,32.67a2.72,2.72,0,0,1,5.38.76,2.74,2.74,0,0,1-3.08,2.17A2.78,2.78,0,0,1,117.08,32.67Zm4.35.51a1.5,1.5,0,0,0-1.28-1.79,1.6,1.6,0,0,0-1.79,1.41,1.49,1.49,0,0,0,1.28,1.78A1.59,1.59,0,0,0,121.43,33.18Z"/></g></g></g><g id="Group_71" data-name="Group 71"><g id="Group_72" data-name="Group 72"><g id="Vector_79" data-name="Vector 79"><path class="cls-2" d="M129.63,32.16c-.39,1.91-.64,2.93-1,4.85-.38-.13-.64-.13-1.15-.26.26-1.53.51-2.29.77-3.83-.64-.12-.9-.12-1.54-.25a.48.48,0,0,1-.12.38c-.52,2.81-1.16,3.45-2.31,3.32-.13,0-.38-.13-.51-.13.13-.38.13-.51.26-.89h.12c.64.13,1-.26,1.41-2.81a2.76,2.76,0,0,0,.13-1C127.45,31.78,128.22,31.9,129.63,32.16Z"/></g></g></g><g id="Group_73" data-name="Group 73"><g id="Group_74" data-name="Group 74"><g id="Vector_80" data-name="Vector 80"><path class="cls-2" d="M132.44,32.8c.51.13.64.13,1.15.26-.12.63-.25,1-.38,1.65.38.13.64.13,1,.26a1.58,1.58,0,0,1,1.41,2c-.26,1-1.15,1.41-2.3,1.15-.77-.25-1.28-.25-2.05-.51C131.8,35.61,132.06,34.71,132.44,32.8Zm.51,2.81c-.12.51-.12.76-.25,1.27.38.13.64.13,1,.26s.9,0,1-.51-.12-.77-.63-.89S133.34,35.61,133,35.61Z"/></g></g></g><g id="Group_75" data-name="Group 75"><g id="Group_76" data-name="Group 76"><g id="Vector_81" data-name="Vector 81"><path class="cls-2" d="M139,34.33c.39.13.64.13,1.15.26-.25.89-.38,1.27-.64,2,1-.64,1.54-.9,2.69-1.53.51.12.77.25,1.41.38-1,.51-1.54.89-2.69,1.4.51,1.28.77,2,1.28,3.32-.51-.13-.77-.25-1.28-.38-.38-1-.51-1.53-.89-2.43a4.55,4.55,0,0,1-.77.39c-.13.63-.26.89-.39,1.4-.38-.13-.64-.13-1-.26C138.19,37.14,138.45,36.24,139,34.33Z"/></g></g></g><g id="Group_77" data-name="Group 77"><g id="Group_78" data-name="Group 78"><g id="Vector_82" data-name="Vector 82"><path class="cls-2" d="M144.34,38.54A2.65,2.65,0,0,1,147.79,37a2.58,2.58,0,0,1,1.79,3.32,2.7,2.7,0,0,1-3.45,1.53A2.86,2.86,0,0,1,144.34,38.54Zm4.09,1.28a1.65,1.65,0,0,0-1-2,1.44,1.44,0,0,0-1.92,1,1.48,1.48,0,0,0,1,1.91A1.31,1.31,0,0,0,148.43,39.82Z"/></g></g></g></g></g></g></g></g></g></g></svg>