<svg width="103" height="21" viewBox="0 0 103 21" version="1.1" xmlns="http://www.w3.org/2000/svg" xmlns:xlink="http://www.w3.org/1999/xlink">
<g id="Canvas" fill="none">
<g id="Group">
<g id="Group_2">
<g id="Group_3">
<g id="Group_4">
<g id="Group_5">
<g id="Vector">
<path d="M 1.77929 5.2459L 1.77929 -1.00058e-06L -1.00555e-06 -1.00058e-06L -1.00555e-06 8.91803L 0.461299 8.91803L 5.99686 3.7377L 5.99686 8.91803L 7.77615 8.91803L 7.77615 -1.00058e-06L 7.31485 -1.00058e-06L 1.77929 5.2459Z" transform="translate(57.0684 11.2812)" fill="#28304A"/>
</g>
</g>
<g id="Group_6">
<g id="Vector_2">
<path d="M 11.5324 -1.00058e-06L 3.82218 -1.00058e-06C 1.71339 -1.00058e-06 -2.51387e-07 1.70492 -2.51387e-07 3.80328C -2.51387e-07 5.90164 1.71339 7.60656 3.82218 7.60656L 11.5324 7.60656C 13.6412 7.60656 15.3546 5.90164 15.3546 3.80328C 15.4205 1.70492 13.6412 -1.00058e-06 11.5324 -1.00058e-06ZM 11.5324 5.83606L 3.82218 5.83606C 2.70188 5.83606 1.77929 4.91803 1.77929 3.80328C 1.77929 2.68853 2.70188 1.77049 3.82218 1.77049L 11.5324 1.77049C 12.6527 1.77049 13.5753 2.68853 13.5753 3.80328C 13.5753 4.91803 12.6527 5.83606 11.5324 5.83606Z" transform="translate(10.8066 11.9336)" fill="#28304A"/>
</g>
</g>
<g id="Group_7">
<g id="Vector_3">
<path d="M 5.20607 1.00058e-06L -1.00555e-06 9.44262L 2.04288 9.44262L 3.03138 7.60656C 3.55858 7.80328 4.21757 7.93443 5.14016 7.93443C 6.06276 7.93443 6.78765 7.80328 7.31485 7.54098L 8.30334 9.37705L 10.3462 9.37705L 8.83054 6.68852C 9.35774 6.36065 9.88494 6.16393 10.8734 6.16393L 10.8734 4.39344C 9.48954 4.39344 8.63284 4.72131 7.97385 5.11475L 5.20607 1.00058e-06ZM 5.14016 6.16393C 4.61297 6.16393 4.28348 6.09836 3.95398 6.03279L 5.20607 3.7377L 6.45815 6.03279C 6.06276 6.09836 5.66736 6.16393 5.14016 6.16393Z" transform="translate(81.7832 10.8242)" fill="#28304A"/>
</g>
</g>
<g id="Group_8">
<g id="Vector_4">
<path d="M 7.38075 -1.00058e-06L 4.94247 -1.00058e-06L 1.77929 3.40984L 1.77929 -1.00058e-06L 0 -1.00058e-06L 0 8.98361L 1.77929 8.98361L 1.77929 6.09836L 2.83368 4.98361L 5.33787 8.98361L 7.44665 8.98361L 4.08577 3.60656L 7.38075 -1.00058e-06Z" transform="translate(0 11.2812)" fill="#28304A"/>
</g>
</g>
<g id="Group_9">
<g id="Vector_5">
<path d="M 7.64435 -1.00058e-06L 4.34937 3.54098L 1.12029 -1.00058e-06L 0.658997 -1.00058e-06L 1.00555e-06 8.98361L 1.77929 8.98361L 2.17469 3.80328L 4.34937 6.16393L 6.58996 3.80328L 6.98536 8.98361L 8.76464 8.98361L 8.10565 -1.00058e-06L 7.64435 -1.00058e-06Z" transform="translate(30.9062 11.2812)" fill="#28304A"/>
</g>
</g>
<g id="Group_10">
<g id="Vector_6">
<path d="M 5.99686 4.52459L 1.77929 4.52459L 1.77929 -1.00058e-06L -2.0111e-06 -1.00058e-06L -2.0111e-06 8.98361L 1.77929 8.98361L 1.77929 6.29508L 5.99686 6.29508L 5.99686 8.98361L 7.77615 8.98361L 7.77615 -1.00058e-06L 5.99686 -1.00058e-06L 5.99686 4.52459Z" transform="translate(70.3145 11.2812)" fill="#28304A"/>
</g>
</g>
<g id="Group_11">
<g id="Vector_7">
<path d="M -4.02219e-06 -1.00058e-06L -4.02219e-06 1.83607L 3.03138 1.83607L 3.03138 8.98361L 4.81067 8.98361L 4.81067 1.83607L 7.84205 1.83607L 7.84205 -1.00058e-06L -4.02219e-06 -1.00058e-06Z" transform="translate(95.1582 11.2812)" fill="#28304A"/>
</g>
</g>
<g id="Group_12">
<g id="Vector_8">
<path d="M 7.38075 4.85246C 6.91945 4.06557 6.06276 3.54098 5.07427 3.54098L 1.77929 3.54098L 1.77929 1.77049L 6.58996 1.77049L 6.58996 5.00288e-07L 1.00555e-06 5.00288e-07L 1.00555e-06 8.91803L 5.07427 8.91803C 6.58996 8.91803 7.77615 7.73771 7.77615 6.22951C 7.77615 5.70492 7.64435 5.2459 7.38075 4.85246ZM 5.07427 7.14754L 1.77929 7.14754L 1.77929 5.37705L 5.07427 5.37705C 5.53556 5.37705 5.99686 5.77049 5.99686 6.29508C 5.99686 6.68852 5.53556 7.14754 5.07427 7.14754Z" transform="translate(44.7461 11.3438)" fill="#28304A"/>
</g>
</g>
</g>
<g id="Group_13">
<g id="Group_14">
<g id="Group_15">
<g id="Group_16">
<g id="Vector_9">
<path d="M 5.02774e-07 0.468272C 0.395398 0.337124 0.658995 0.27155 1.05439 0.0748287C 1.64749 -0.121893 2.17469 0.0748283 2.30649 0.599418C 2.50418 1.18958 2.10879 1.58303 1.58159 1.77975C 1.38389 1.84532 1.31799 1.84532 1.18619 1.91089C 1.31799 2.17319 1.31799 2.36991 1.44979 2.63221C 1.25209 2.69778 1.12029 2.76335 0.922593 2.82893C 0.527196 1.91089 0.329498 1.45188 5.02774e-07 0.468272ZM 1.44979 1.32073C 1.71339 1.25516 1.84519 0.992862 1.77929 0.79614C 1.71339 0.533845 1.44979 0.468271 1.18619 0.599418C 0.988494 0.664992 0.922594 0.664993 0.724895 0.730566C 0.856694 0.992861 0.856695 1.18958 0.988494 1.45188C 1.18619 1.45188 1.25209 1.3863 1.44979 1.32073Z" transform="translate(25.834 3.99219)" fill="#28304A"/>
</g>
</g>
</g>
<g id="Group_17">
<g id="Group_18">
<g id="Vector_10">
<path d="M -1.00555e-06 0.852459C 0.197698 0.786885 0.329498 0.721311 0.593096 0.655737C 0.724895 0.983606 0.724896 1.18033 0.856695 1.5082C 1.05439 1.44262 1.18619 1.44262 1.38389 1.37705C 1.97699 1.18033 2.43828 1.44262 2.57008 1.90164C 2.70188 2.42623 2.43829 2.81967 1.84519 3.01639C 1.44979 3.14754 1.18619 3.21311 0.790794 3.34426C 0.461296 2.29508 0.329497 1.83607 -1.00555e-06 0.852459ZM 0.988493 1.96721C 1.05439 2.22951 1.12029 2.36066 1.18619 2.62295C 1.38389 2.55738 1.51569 2.55738 1.71339 2.4918C 1.97699 2.42623 2.10879 2.22951 2.04289 2.03279C 1.97699 1.83607 1.77929 1.77049 1.51569 1.83607C 1.31799 1.83607 1.18619 1.90164 0.988493 1.96721ZM 2.37239 0.131148C 2.57008 0.0655738 2.70188 0.0655733 2.96548 -5.00288e-07C 3.22908 0.983606 3.36088 1.44262 3.62448 2.42623C 3.42678 2.4918 3.29498 2.4918 3.09728 2.55738C 2.83368 1.63934 2.70188 1.11475 2.37239 0.131148Z" transform="translate(29.0645 2.5625)" fill="#28304A"/>
</g>
</g>
</g>
<g id="Group_19">
<g id="Group_20">
<g id="Vector_11">
<path d="M 0.856694 1.2459C 1.12029 1.18033 1.25209 1.18033 1.51569 1.11475C 2.10879 0.983607 2.50418 1.2459 2.57008 1.70492C 2.70188 2.22951 2.37239 2.55738 1.77929 2.68852C 1.31799 2.81967 1.05439 2.81967 0.593095 2.95082C 0.329497 1.96721 0.197699 1.44262 5.02774e-07 0.459017C 0.790795 0.262296 1.18619 0.196721 2.04289 0C 2.10879 0.196721 2.10879 0.327868 2.17469 0.52459C 1.58159 0.655737 1.31799 0.721311 0.724895 0.852459C 0.790794 0.983606 0.790795 1.11475 0.856694 1.2459ZM 0.988494 1.70492C 1.05439 1.96721 1.05439 2.09836 1.12029 2.29508C 1.38389 2.22951 1.51569 2.22951 1.71339 2.16393C 1.97699 2.09836 2.10879 1.96721 2.04289 1.77049C 1.97699 1.57377 1.84519 1.5082 1.58159 1.57377C 1.31799 1.63934 1.18619 1.63934 0.988494 1.70492Z" transform="translate(33.4121 1.71094)" fill="#28304A"/>
</g>
</g>
</g>
<g id="Group_21">
<g id="Group_22">
<g id="Vector_12">
<path d="M 0.658995 0.0655733C 0.856694 -5.0322e-07 0.988493 5.00288e-07 1.18619 5.00288e-07C 1.84519 0.918033 2.10879 1.37705 2.76778 2.36066C 2.50418 2.42623 2.43828 2.42623 2.17469 2.42623C 2.04289 2.22951 1.97699 2.09836 1.84519 1.90164C 1.38389 1.96721 1.18619 2.03279 0.724896 2.09836C 0.658997 2.36066 0.658996 2.4918 0.593097 2.68852C 0.395398 2.7541 0.263598 2.7541 -5.02774e-07 2.81967C 0.263598 1.70492 0.395397 1.18033 0.658995 0.0655733ZM 1.58159 1.44262C 1.38389 1.11475 1.31799 0.983606 1.05439 0.721311C 0.988495 1.04918 0.922593 1.2459 0.856694 1.57377C 1.12029 1.5082 1.25209 1.5082 1.58159 1.44262Z" transform="translate(37.1016 1.18359)" fill="#28304A"/>
</g>
</g>
</g>
<g id="Group_23">
<g id="Group_24">
<g id="Vector_13">
<path d="M 2.57008 2.4918C 2.37239 2.4918 2.24058 2.4918 1.97699 2.55738C 1.91109 1.90164 1.91109 1.57377 1.84519 0.918032C 1.44979 1.63934 1.25209 1.96721 0.856696 2.68852C 0.658997 2.68852 0.527196 2.7541 0.329497 2.7541C 0.197698 1.77049 0.131798 1.2459 -1.00555e-06 0.262295C 0.263597 0.262295 0.329498 0.196722 0.593096 0.196722C 0.658996 0.852459 0.724897 1.18033 0.790797 1.83607C 1.18619 1.11475 1.38389 0.786885 1.77929 0.0655738C 1.97699 0.0655738 2.10879 0.0655735 2.30648 -2.50144e-07C 2.43828 0.983606 2.50418 1.5082 2.57008 2.4918Z" transform="translate(42.5742 0.328125)" fill="#28304A"/>
</g>
</g>
</g>
<g id="Group_25">
<g id="Group_26">
<g id="Vector_14">
<path d="M 1.00555e-06 0C 0.263599 0 0.3295 0 0.593098 0C 0.593098 0.393443 0.593097 0.590164 0.658997 0.983607C 1.12029 0.983607 1.31799 0.983607 1.71339 0.983607C 1.71339 0.590164 1.71339 0.393443 1.71339 0C 1.97699 0 2.04289 0 2.30649 0C 2.30649 0.983607 2.30648 1.5082 2.37238 2.55738C 2.17469 2.55738 2.04289 2.55738 1.77929 2.55738C 1.77929 2.16393 1.77929 1.96721 1.77929 1.5082C 1.38389 1.5082 1.12029 1.5082 0.724895 1.5082C 0.724895 1.90164 0.724894 2.09836 0.790794 2.55738C 0.593095 2.55738 0.461295 2.55738 0.197697 2.55738C 0.0658976 1.5082 1.00555e-06 1.04918 1.00555e-06 0Z" transform="translate(48.373 0.0664062)" fill="#28304A"/>
</g>
</g>
</g>
<g id="Group_27">
<g id="Group_28">
<g id="Vector_15">
<path d="M 0 -2.50144e-07C 0.790795 -2.50144e-07 1.18619 0 2.04289 0.0655738C 2.04289 0.262295 2.04289 0.393442 2.04289 0.590163C 1.44979 0.590163 1.18619 0.590163 0.593097 0.590163C 0.593097 0.786885 0.593097 0.918033 0.593097 1.11475C 1.12029 1.11475 1.31799 1.11475 1.84519 1.11475C 1.84519 1.31148 1.84519 1.44262 1.84519 1.63934C 1.31799 1.63934 1.12029 1.63934 0.593097 1.63934C 0.593097 1.83607 0.593097 1.96721 0.593097 2.16393C 1.18619 2.16393 1.44979 2.16393 2.04289 2.16393C 2.04289 2.36066 2.04289 2.4918 2.04289 2.68852C 1.25209 2.68852 0.856694 2.68852 0.0658986 2.62295C -1.00653e-06 1.5082 0 1.04918 0 -2.50144e-07Z" transform="translate(52.0625 0)" fill="#28304A"/>
</g>
</g>
</g>
<g id="Group_29">
<g id="Group_30">
<g id="Vector_16">
<path d="M 0.790795 0.590164C 0.461297 0.590164 0.3295 0.52459 2.0111e-06 0.52459C 2.0111e-06 0.327869 1.00653e-06 0.196722 0.0659006 5.00288e-07C 0.988495 0.0655743 1.38389 0.131148 2.30649 0.196721C 2.30649 0.393443 2.30648 0.52459 2.24058 0.721311C 1.91109 0.655737 1.77929 0.655738 1.44979 0.655738C 1.38389 1.44262 1.31799 1.83607 1.25209 2.68852C 1.05439 2.68852 0.922596 2.68853 0.658998 2.62295C 0.724897 1.77049 0.724895 1.37705 0.790795 0.590164Z" transform="translate(57.2012 0.195312)" fill="#28304A"/>
</g>
</g>
</g>
<g id="Group_31">
<g id="Group_32">
<g id="Vector_17">
<path d="M 0.00556139 1.13491C 0.071461 0.4136 0.730458 -0.110991 1.58715 0.0201568C 2.44385 0.151304 2.90514 0.807043 2.77334 1.52835C 2.64154 2.24967 1.98255 2.70868 1.19176 2.64311C 0.46686 2.51196 -0.0603382 1.85622 0.00556139 1.13491ZM 2.24615 1.39721C 2.31205 0.93819 2.04845 0.544748 1.58715 0.479174C 1.12586 0.4136 0.730457 0.741469 0.664557 1.20049C 0.598658 1.6595 0.862256 2.05294 1.32355 2.11852C 1.78485 2.18409 2.18025 1.85622 2.24615 1.39721Z" transform="translate(60.293 0.632812)" fill="#28304A"/>
</g>
</g>
</g>
<g id="Group_33">
<g id="Group_34">
<g id="Vector_18">
<path d="M 3.03138 0.327869C 2.83368 1.31148 2.70188 1.83607 2.50418 2.81967C 2.30649 2.7541 2.17469 2.7541 1.91109 2.68852C 2.04289 1.90164 2.17468 1.5082 2.30648 0.721311C 1.97699 0.655737 1.84519 0.655738 1.51569 0.590164C 1.51569 0.655738 1.51569 0.721311 1.44979 0.786885C 1.18619 2.22951 0.856693 2.55738 0.263597 2.4918C 0.197698 2.4918 0.0658976 2.42623 -2.0111e-06 2.42623C 0.0658976 2.22951 0.0659006 2.16393 0.1318 1.96721L 0.197699 1.96721C 0.527197 2.03279 0.724894 1.83607 0.922593 0.52459C 0.988493 0.327869 0.988492 0.196722 0.988492 5.00288e-07C 1.91109 0.131148 2.30649 0.196722 3.03138 0.327869Z" transform="translate(63.7266 1.18359)" fill="#28304A"/>
</g>
</g>
</g>
<g id="Group_35">
<g id="Group_36">
<g id="Vector_19">
<path d="M 0.593096 5.00288e-07C 0.856694 0.0655743 0.922595 0.0655735 1.18619 0.131147C 1.12029 0.459016 1.05439 0.655738 0.988493 0.983607C 1.18619 1.04918 1.31799 1.04918 1.51569 1.11475C 2.10879 1.2459 2.37238 1.63934 2.24059 2.16393C 2.10879 2.68852 1.64749 2.88525 1.05439 2.7541C 0.658994 2.62295 0.395396 2.62295 -1.00555e-06 2.4918C 0.263597 1.44262 0.395397 0.983607 0.593096 5.00288e-07ZM 0.856695 1.44262C 0.790796 1.70492 0.790793 1.83607 0.724893 2.09836C 0.922592 2.16393 1.05439 2.16393 1.25209 2.22951C 1.51569 2.29508 1.71339 2.22951 1.77929 1.96721C 1.84519 1.77049 1.71339 1.57377 1.44979 1.5082C 1.18619 1.5082 1.05439 1.44262 0.856695 1.44262Z" transform="translate(67.6133 1.83594)" fill="#28304A"/>
</g>
</g>
</g>
<g id="Group_37">
<g id="Group_38">
<g id="Vector_20">
<path d="M 0.593095 -2.50144e-07C 0.790794 0.0655735 0.922594 0.065574 1.18619 0.131148C 1.05439 0.590164 0.988494 0.786886 0.856694 1.18033C 1.38389 0.852459 1.64749 0.721311 2.24058 0.393443C 2.50418 0.459016 2.63598 0.52459 2.96548 0.590163C 2.43828 0.852458 2.17469 1.04918 1.58159 1.31148C 1.84519 1.96721 1.97699 2.36066 2.24058 3.01639C 1.97699 2.95082 1.84519 2.88525 1.58159 2.81967C 1.38389 2.29508 1.31799 2.03279 1.12029 1.57377C 0.988495 1.63934 0.922596 1.70492 0.724897 1.77049C 0.658998 2.09836 0.593096 2.22951 0.527197 2.4918C 0.329498 2.42623 0.197697 2.42623 -2.0111e-06 2.36066C 0.197697 1.44262 0.329497 0.983606 0.593095 -2.50144e-07Z" transform="translate(70.9766 2.625)" fill="#28304A"/>
</g>
</g>
</g>
<g id="Group_39">
<g id="Group_40">
<g id="Vector_21">
<path d="M 0.0507204 0.869045C 0.248419 0.213307 1.03921 -0.180136 1.83001 0.082159C 2.6208 0.344454 3.0162 1.13134 2.7526 1.78708C 2.489 2.44282 1.76411 2.83626 0.97331 2.57396C 0.248415 2.24609 -0.146978 1.52478 0.0507204 0.869045ZM 2.1595 1.52478C 2.2913 1.13134 2.0936 0.672323 1.63231 0.475602C 1.17101 0.344454 0.775612 0.541175 0.643812 1.00019C 0.512013 1.39363 0.709714 1.85265 1.17101 1.9838C 1.63231 2.18052 2.02771 1.9838 2.1595 1.52478Z" transform="translate(74.2832 3.91406)" fill="#28304A"/>
</g>
</g>
</g>
</g>
</g>
</g>
</g>
</g>
</g>
</svg>

