<svg xmlns="http://www.w3.org/2000/svg" xmlns:xlink="http://www.w3.org/1999/xlink" viewBox="0 0 115.67 118.26"><defs><style>.cls-1{opacity:0.3;}.cls-2{fill:#353535;}.cls-3{fill:url(#Безымянный_градиент_14);}.cls-4{fill:#28304a;}.cls-5{fill:#f1dac2;}</style><linearGradient id="Безымянный_градиент_14" x1="-3561.4" y1="-2404.57" x2="-3560.4" y2="-2404.57" gradientTransform="matrix(-25.31, 75.87, 65.83, 21.8, 68253.16, 322666.7)" gradientUnits="userSpaceOnUse"><stop offset="0" stop-color="#fff"/><stop offset="1" stop-color="#fff" stop-opacity="0"/></linearGradient></defs><title>marker</title><g id="Слой_2" data-name="Слой 2"><g id="Слой_1-2" data-name="Слой 1"><g id="Group_4" data-name="Group 4"><g id="Group_3.5" data-name="Group 3.5"><g id="Group_2_3" data-name="Group 2_3"><g id="if_location_1585851" data-name="if location 1585851" class="cls-1"><g id="Union"><path class="cls-2" d="M68.75,96.31C51.87,87,44.24,68.6,51.71,55.12s27.19-16.9,44.06-7.63,24.5,27.71,17,41.19c0,0-3.92,17.31-53.67,29.49a8.28,8.28,0,0,1-1.06.09,2.79,2.79,0,0,1-1.35-.24Z"/><path class="cls-3" d="M68.75,96.31C51.87,87,44.24,68.6,51.71,55.12s27.19-16.9,44.06-7.63,24.5,27.71,17,41.19c0,0-3.92,17.31-53.67,29.49a8.28,8.28,0,0,1-1.06.09,2.79,2.79,0,0,1-1.35-.24Z"/></g><g id="Union_2" data-name="Union 2"><path class="cls-2" d="M68.75,96.31C51.87,87,44.24,68.6,51.71,55.12s27.19-16.9,44.06-7.63,24.5,27.71,17,41.19c0,0-3.92,17.31-53.67,29.49a8.28,8.28,0,0,1-1.06.09,2.79,2.79,0,0,1-1.35-.24Z"/><path class="cls-3" d="M68.75,96.31C51.87,87,44.24,68.6,51.71,55.12s27.19-16.9,44.06-7.63,24.5,27.71,17,41.19c0,0-3.92,17.31-53.67,29.49a8.28,8.28,0,0,1-1.06.09,2.79,2.79,0,0,1-1.35-.24Z"/></g></g><g id="if_location_1585851_2" data-name="if location 1585851 2" class="cls-1"><g id="Union_3" data-name="Union 3"><path class="cls-2" d="M68.75,96.31C51.87,87,44.24,68.6,51.71,55.12s27.19-16.9,44.06-7.63,24.5,27.71,17,41.19c0,0-3.92,17.31-53.67,29.49a8.28,8.28,0,0,1-1.06.09,2.79,2.79,0,0,1-1.35-.24Z"/><path class="cls-3" d="M68.75,96.31C51.87,87,44.24,68.6,51.71,55.12s27.19-16.9,44.06-7.63,24.5,27.71,17,41.19c0,0-3.92,17.31-53.67,29.49a8.28,8.28,0,0,1-1.06.09,2.79,2.79,0,0,1-1.35-.24Z"/></g><g id="Union_4" data-name="Union 4"><path class="cls-2" d="M68.75,96.31C51.87,87,44.24,68.6,51.71,55.12s27.19-16.9,44.06-7.63,24.5,27.71,17,41.19c0,0-3.92,17.31-53.67,29.49a8.28,8.28,0,0,1-1.06.09,2.79,2.79,0,0,1-1.35-.24Z"/><path class="cls-3" d="M68.75,96.31C51.87,87,44.24,68.6,51.71,55.12s27.19-16.9,44.06-7.63,24.5,27.71,17,41.19c0,0-3.92,17.31-53.67,29.49a8.28,8.28,0,0,1-1.06.09,2.79,2.79,0,0,1-1.35-.24Z"/></g></g></g><g id="if_location_1585851_3" data-name="if location 1585851 3"><g id="XMLID_3" data-name="XMLID 3"><path class="cls-4" d="M55.18,86.49A34.76,34.76,0,1,0,20.29,51.73,34.82,34.82,0,0,0,55.18,86.49Z"/></g><g id="XMLID_8" data-name="XMLID 8"><path class="cls-4" d="M55.18,117.4c-.89,0-2.18-1.29-2.18-1.29C15.34,73,20.3,51.73,20.3,51.73S31.2,86.39,55.18,86.49"/></g><g id="XMLID_6" data-name="XMLID 6"><path class="cls-4" d="M55.18,117.4c.89,0,2.18-1.29,2.18-1.29C95,73,90.07,51.73,90.07,51.73S79.17,86.39,55.18,86.49"/></g></g></g></g><path class="cls-4" d="M0,0H108.5V101.41H0Z"/><g id="Vector_7" data-name="Vector 7"><path class="cls-5" d="M46,79.8,47.77,78s3.79-4,8-4a11,11,0,0,1,5.1,1.85L62.58,77l-.09-2a30,30,0,0,0-6.94-16.9c1.75-2.13,6.94-8.87,6.94-17,0-9.7-7.22-17.36-7.5-17.64l-.74-.74-.74.74c-.28.28-7.5,8-7.5,17.64,0,8.12,5.09,14.86,6.85,17A29.38,29.38,0,0,0,46,77.31Zm8.24-54.11A28.24,28.24,0,0,1,60.08,37.6a11.34,11.34,0,0,1-6.2,1.94,8.82,8.82,0,0,1-5.56-1.85A29.25,29.25,0,0,1,54.25,25.69Zm-6.2,14.22a10.71,10.71,0,0,0,5.83,1.57,12.92,12.92,0,0,0,6.48-1.76c0,.46.09.93.09,1.39,0,7.11-4.44,13.2-6.2,15.42-1.76-2.22-6.2-8.31-6.2-15.42Zm6.2,19.67a30.59,30.59,0,0,1,6.11,13.57A10.93,10.93,0,0,0,55.92,72a12.92,12.92,0,0,0-7.69,3A27.16,27.16,0,0,1,54.25,59.58Z"/></g><g id="Vector_8" data-name="Vector 8"><path class="cls-5" d="M51.1,35.94a2.74,2.74,0,0,0,.74.74,1.54,1.54,0,0,0,.92.18,1.81,1.81,0,0,0,1.58-.92,1.68,1.68,0,0,0,0-1.85,2.89,2.89,0,0,0-.74-.74,1.88,1.88,0,0,0-2.5.65A2.34,2.34,0,0,0,51.1,35.94Z"/></g><g id="Vector_9" data-name="Vector 9"><path class="cls-5" d="M33.14,78l.74.74.74-.74c.28-.27,7.5-8,7.5-17.64,0-8.12-5.09-14.86-6.94-17,1.66-2,6.48-8.49,6.94-16.9l.09-2.12-1.75,1.2a10.14,10.14,0,0,1-5.1,1.85c-4.26,0-8-4-8-4l-1.76-1.85v2.49A29.42,29.42,0,0,0,32.4,43.32c-1.76,2.13-6.85,8.87-6.85,17C25.64,70,32.86,77.67,33.14,78Zm.74-2.31a29.14,29.14,0,0,1-5.92-12,8.76,8.76,0,0,1,5.55-1.85,11.34,11.34,0,0,1,6.2,1.94A27,27,0,0,1,33.88,75.73Zm1.58-46.26a10.54,10.54,0,0,0,4.44-1.2,29.09,29.09,0,0,1-6.11,13.57,27.4,27.4,0,0,1-6.11-15.42A13.44,13.44,0,0,0,35.46,29.47ZM33.88,44.89c1.76,2.22,6.21,8.31,6.21,15.42A6.51,6.51,0,0,1,40,61.7a13.21,13.21,0,0,0-6.48-1.76,11.58,11.58,0,0,0-5.83,1.57v-1.2C27.68,53.2,32.12,47.11,33.88,44.89Z"/></g><g id="Vector_10" data-name="Vector 10"><path class="cls-5" d="M34,65.39a1.88,1.88,0,0,0-2.5-.65,2.74,2.74,0,0,0-.74.74,1.87,1.87,0,0,0,.09,1.85,1.92,1.92,0,0,0,1.57.92,3.4,3.4,0,0,0,.93-.18,2.74,2.74,0,0,0,.74-.74A2,2,0,0,0,34,65.39Z"/></g><path class="cls-5" d="M73.87,78l.74.74.74-.74c.28-.27,7.5-8,7.5-17.64,0-8.12-5.09-14.86-6.94-17,1.66-2,6.48-8.49,6.94-16.9l.09-2.12-1.75,1.2a10.14,10.14,0,0,1-5.1,1.85c-4.26,0-8-4-8-4l-1.76-1.85v2.49a29.42,29.42,0,0,0,6.85,19.21c-1.76,2.13-6.85,8.87-6.85,17C66.37,70,73.59,77.67,73.87,78Zm.74-2.31a29.14,29.14,0,0,1-5.92-12,8.76,8.76,0,0,1,5.55-1.85,11.34,11.34,0,0,1,6.2,1.94A27,27,0,0,1,74.61,75.73Zm1.58-46.26a10.54,10.54,0,0,0,4.44-1.2,29.61,29.61,0,0,1-6.11,13.57,27.4,27.4,0,0,1-6.11-15.42A13.44,13.44,0,0,0,76.19,29.47ZM74.61,44.89c1.76,2.22,6.21,8.31,6.21,15.42a6.51,6.51,0,0,1-.1,1.39,13.21,13.21,0,0,0-6.48-1.76,11.58,11.58,0,0,0-5.83,1.57v-1.2C68.41,53.2,72.85,47.11,74.61,44.89Z"/><g id="Vector_12" data-name="Vector 12"><path class="cls-5" d="M74.71,65.39a1.88,1.88,0,0,0-2.5-.65,2.74,2.74,0,0,0-.74.74,1.87,1.87,0,0,0,.09,1.85,1.92,1.92,0,0,0,1.57.92,3.4,3.4,0,0,0,.93-.18,2.74,2.74,0,0,0,.74-.74A2,2,0,0,0,74.71,65.39Z"/></g><g id="Vector_13" data-name="Vector 13"><path class="cls-5" d="M14.71,11.28V90.14H93.77V11.28ZM91.83,88.11H16.75V13.31H91.83Z"/></g></g></g></svg>