<svg width="13" height="19" viewBox="0 0 13 19" version="1.1" xmlns="http://www.w3.org/2000/svg" xmlns:xlink="http://www.w3.org/1999/xlink">
<g id="Canvas" fill="none">
<g id="1499302558_social_media_social_media_logo_Odnoklassniki">
<g id="Odnoklassniki">
<g id="Vector">
<path d="M 4.49946 8.99644C 5.38937 8.99644 6.2593 8.73263 6.99923 8.23836C 7.73916 7.74409 8.31587 7.04156 8.65642 6.21962C 8.99697 5.39768 9.08608 4.49323 8.91247 3.62066C 8.73885 2.74809 8.31032 1.94659 7.68106 1.3175C 7.0518 0.688413 6.25007 0.259999 5.37726 0.0864341C 4.50445 -0.0871308 3.59976 0.00194902 2.77759 0.342409C 1.95542 0.682868 1.2527 1.25942 0.758296 1.99915C 0.263889 2.73887 0 3.60856 0 4.49822C 0 5.69123 0.474049 6.83537 1.31786 7.67895C 2.16167 8.52252 3.30613 8.99644 4.49946 8.99644ZM 4.49946 2.24911C 4.94442 2.24911 5.37938 2.38102 5.74934 2.62816C 6.11931 2.87529 6.40766 3.22655 6.57794 3.63753C 6.74822 4.0485 6.79277 4.50072 6.70596 4.937C 6.61916 5.37329 6.40489 5.77404 6.09026 6.08858C 5.77563 6.40313 5.37477 6.61734 4.93836 6.70412C 4.50196 6.7909 4.04961 6.74636 3.63853 6.57613C 3.22744 6.4059 2.87608 6.11763 2.62888 5.74776C 2.38168 5.3779 2.24973 4.94306 2.24973 4.49822C 2.24973 3.90172 2.48675 3.32965 2.90866 2.90786C 3.33057 2.48607 3.9028 2.24911 4.49946 2.24911Z" transform="translate(2.37012 0.347656)" fill="#F7EBDD"/>
</g>
<g id="Vector_2">
<path d="M 11.0994 3.16447C 11.3755 2.98322 11.6023 2.73627 11.7593 2.44577C 11.9164 2.15528 11.9988 1.83034 11.9993 1.50013C 12.0055 1.30153 11.971 1.10376 11.8978 0.919022C 11.8247 0.734282 11.7144 0.566488 11.5739 0.425991C 11.4334 0.285494 11.2655 0.175275 11.0807 0.102132C 10.8959 0.0289896 10.6981 -0.00552489 10.4995 0.000718358C 10.1715 0.00124657 9.85279 0.109217 9.59207 0.308097C 8.54732 1.08867 7.27803 1.51044 5.97375 1.51044C 4.66948 1.51044 3.40019 1.08867 2.35544 0.308097C 2.10466 0.1331 1.80636 0.0389275 1.50054 0.0382037C 1.30189 0.0319604 1.10407 0.0664742 0.919276 0.139617C 0.734485 0.21276 0.566644 0.322979 0.426109 0.463476C 0.285573 0.603973 0.175323 0.771768 0.10216 0.956508C 0.0289975 1.14125 -0.00552655 1.33902 0.000718413 1.53761C 0.00115455 1.86783 0.0836067 2.19277 0.240673 2.48326C 0.39774 2.77375 0.624505 3.02071 0.90061 3.20195C 1.62895 3.66742 2.41907 4.0283 3.24783 4.27403L 3.72777 4.40897L 1.26807 6.82302C 1.11933 6.97013 1.00125 7.14526 0.920663 7.33829C 0.840077 7.53132 0.798583 7.73841 0.798583 7.94758C 0.798583 8.15674 0.840077 8.36383 0.920663 8.55686C 1.00125 8.74989 1.11933 8.92502 1.26807 9.07213C 1.56911 9.36522 1.97272 9.52923 2.39293 9.52923C 2.81314 9.52923 3.21675 9.36522 3.5178 9.07213L 6 6.47066L 8.4972 9.05714C 8.79553 9.35539 9.20016 9.52294 9.62207 9.52294C 10.044 9.52294 10.4486 9.35539 10.7469 9.05714C 11.0453 8.75889 11.2129 8.35437 11.2129 7.93258C 11.2129 7.51079 11.0453 7.10628 10.7469 6.80803L 8.24973 4.41647L 8.73717 4.28153C 9.57365 4.02323 10.369 3.64709 11.0994 3.16447Z" transform="translate(0.870117 8.81641)" fill="#F7EBDD"/>
</g>
</g>
</g>
</g>
</svg>

