<svg xmlns="http://www.w3.org/2000/svg" viewBox="0 0 53.71 31.22"><defs><style>.cls-1{fill:none;stroke:#ba8161;stroke-linecap:round;stroke-linejoin:round;stroke-width:2px;}</style></defs><title>owl-brown</title><g id="Layer_2" data-name="Layer 2"><g id="Layer_1-2" data-name="Layer 1"><g id="Слой_2" data-name="Слой 2"><g id="Слой_1-2" data-name="Слой 1-2"><g id="if_social_media_social_media_logo_tripadvisor_1907091_2" data-name="if social media social media logo tripadvisor 1907091 2"><g id="Tripadvisor_2" data-name="Tripadvisor 2"><g id="_Group_2" data-name=" Group  2"><g id="_Path_11" data-name=" Path  11"><path class="cls-1" d="M14.49,17.86a1.13,1.13,0,1,1-2.25.21.74.74,0,0,1,0-.21,1.13,1.13,0,0,1,2.25,0Z"/></g><g id="_Path_12" data-name=" Path  12"><path class="cls-1" d="M19,17.87a5.62,5.62,0,1,1-5.62-5.62A5.62,5.62,0,0,1,19,17.87Z"/></g><g id="_Path_13" data-name=" Path  13"><path class="cls-1" d="M25.72,17.86A12.36,12.36,0,1,1,13.36,5.5,12.36,12.36,0,0,1,25.72,17.86Z"/></g><g id="_Path_14" data-name=" Path  14"><path class="cls-1" d="M41.47,17.86a1.13,1.13,0,1,1-2.25.21.74.74,0,0,1,0-.21,1.13,1.13,0,0,1,2.25,0Z"/></g><g id="_Path_15" data-name=" Path  15"><path class="cls-1" d="M46,17.87a5.62,5.62,0,1,1-5.62-5.62h0A5.62,5.62,0,0,1,46,17.87Z"/></g><g id="_Path_16" data-name=" Path  16"><path class="cls-1" d="M52.69,17.86A12.36,12.36,0,1,1,40.33,5.5h0A12.36,12.36,0,0,1,52.69,17.86Z"/></g><g id="_Path_17" data-name=" Path  17"><path class="cls-1" d="M9.72,5.5A34.89,34.89,0,0,1,44,5.5"/></g><g id="_Path_18" data-name=" Path  18"><path class="cls-1" d="M12.24,5.5H1a12.65,12.65,0,0,1,2.45,5"/></g><g id="_Path_19" data-name=" Path  19"><path class="cls-1" d="M41.47,5.5H52.71a12.65,12.65,0,0,0-2.45,5"/></g><g id="_Path_20" data-name=" Path  20"><path class="cls-1" d="M23.57,24.83l3.28,5.39,3.28-5.39"/></g></g></g></g></g></g></g></g></svg>