<svg xmlns="http://www.w3.org/2000/svg" viewBox="0 0 53.71 31.21"><defs><style>.cls-1{fill:none;stroke:#303c42;stroke-linecap:round;stroke-linejoin:round;stroke-width:2px;}</style></defs><title>owl</title><g id="Слой_2" data-name="Слой 2"><g id="Слой_1-2" data-name="Слой 1"><g id="if_social_media_social_media_logo_tripadvisor_1907091_2" data-name="if social media social media logo tripadvisor 1907091 2"><g id="Tripadvisor_2" data-name="Tripadvisor 2"><g id="_Group__2" data-name="&lt;Group&gt;_2"><g id="_Path__11" data-name="&lt;Path&gt;_11"><path class="cls-1" d="M14.49,17.85a1.13,1.13,0,1,1-2.25,0,1.13,1.13,0,0,1,2.25,0Z"/></g><g id="_Path__12" data-name="&lt;Path&gt;_12"><path class="cls-1" d="M19,17.86a5.62,5.62,0,1,1-5.62-5.62A5.62,5.62,0,0,1,19,17.86Z"/></g><g id="_Path__13" data-name="&lt;Path&gt;_13"><path class="cls-1" d="M25.72,17.85A12.36,12.36,0,1,1,13.36,5.49,12.36,12.36,0,0,1,25.72,17.85Z"/></g><g id="_Path__14" data-name="&lt;Path&gt;_14"><path class="cls-1" d="M41.47,17.85a1.13,1.13,0,1,1-2.25,0,1.13,1.13,0,0,1,2.25,0Z"/></g><g id="_Path__15" data-name="&lt;Path&gt;_15"><path class="cls-1" d="M46,17.86a5.62,5.62,0,1,1-5.62-5.62A5.62,5.62,0,0,1,46,17.86Z"/></g><g id="_Path__16" data-name="&lt;Path&gt;_16"><path class="cls-1" d="M52.69,17.85A12.36,12.36,0,1,1,40.33,5.49,12.36,12.36,0,0,1,52.69,17.85Z"/></g><g id="_Path__17" data-name="&lt;Path&gt;_17"><path class="cls-1" d="M9.72,5.49A34.9,34.9,0,0,1,44,5.49"/></g><g id="_Path__18" data-name="&lt;Path&gt;_18"><path class="cls-1" d="M12.24,5.49H1a12.67,12.67,0,0,1,2.45,5"/></g><g id="_Path__19" data-name="&lt;Path&gt;_19"><path class="cls-1" d="M41.47,5.49H52.71a12.67,12.67,0,0,0-2.45,5"/></g><g id="_Path__20" data-name="&lt;Path&gt;_20"><path class="cls-1" d="M23.57,24.82l3.28,5.39,3.28-5.39"/></g></g></g></g></g></g></svg>