<svg xmlns="http://www.w3.org/2000/svg" viewBox="0 0 25.04 34.53"><defs><style>.cls-1{fill:#ba8161;}</style></defs><title>placeholder-brown</title><g id="Слой_2" data-name="Слой 2"><g id="Слой_1-2" data-name="Слой 1"><g id="if_location_1814106_8" data-name="if location 1814106 8"><g id="Group_431" data-name="Group 431"><g id="Icon_Location_8" data-name="Icon Location_8"><g id="Fill_55_8" data-name="Fill 55_8"><path class="cls-1" d="M12.52,34.53l-.67-.81C11.4,33.14,0,20.07,0,12.26A12.41,12.41,0,0,1,12.52,0,12.47,12.47,0,0,1,25,12.26c0,7.81-11.4,21-11.85,21.46Zm0-32.85A10.62,10.62,0,0,0,1.79,12.19c0,6.13,8.27,16.57,10.73,19.56,2.46-3,10.73-13.36,10.73-19.56A10.62,10.62,0,0,0,12.52,1.68Z"/></g><g id="Fill_56_8" data-name="Fill 56_8"><path class="cls-1" d="M12.53,16.93a4.75,4.75,0,0,1-4.77-4.67,4.77,4.77,0,0,1,9.54,0A4.75,4.75,0,0,1,12.53,16.93Zm0-7.59a2.92,2.92,0,1,0,3,2.92A3,3,0,0,0,12.53,9.34Z"/></g></g></g></g></g></g></svg>