<svg xmlns="http://www.w3.org/2000/svg" viewBox="0 0 23 33"><defs><style>.cls-1{fill:#28304a;}</style></defs><title>placeholder</title><g id="Слой_2" data-name="Слой 2"><g id="Слой_1-2" data-name="Слой 1"><g id="if_location_1814106" data-name="if location 1814106"><g id="Group_79" data-name="Group 79"><g id="Icon_Location" data-name="Icon Location"><g id="Fill_55" data-name="Fill 55"><path class="cls-1" d="M11.5,33l-.62-.77C10.47,31.67,0,19.19,0,11.72A11.63,11.63,0,0,1,11.5,0,11.68,11.68,0,0,1,23,11.72c0,7.47-10.47,20-10.88,20.51Zm0-31.4A10,10,0,0,0,1.64,11.65c0,5.86,7.6,15.84,9.86,18.7,2.26-2.86,9.86-12.77,9.86-18.7A10,10,0,0,0,11.5,1.6Z"/></g><g id="Fill_56" data-name="Fill 56"><path class="cls-1" d="M11.5,16.19a4.47,4.47,0,0,1,0-8.93,4.47,4.47,0,0,1,0,8.93Zm0-7.26a2.8,2.8,0,1,0,2.74,2.8A2.78,2.78,0,0,0,11.5,8.93Z"/></g></g></g></g></g></g></svg>