<svg xmlns="http://www.w3.org/2000/svg" viewBox="0 0 294.37 368.07"><defs><style>.cls-1{fill:#f5e2ce;fill-opacity:0.3;}</style></defs><title>shrimp-left</title><g id="Слой_2" data-name="Слой 2"><g id="Слой_1-2" data-name="Слой 1"><g id="Group"><g id="Group_2" data-name="Group 2"><g id="Vector"><path class="cls-1" d="M121.94,109.65c-1,0-1.47.49-2.46.49a3.67,3.67,0,0,1-2.45-.49,13.63,13.63,0,0,1-10.81-13.27c0-6.38,4.42-11.3,10.81-13.26a8.38,8.38,0,0,1,4.91,0,13.62,13.62,0,0,1,10.81,13.26C132.75,102.77,128.33,107.68,121.94,109.65Zm-2.46-15.23c-2,.49-2,1.47-2,2s0,1.48,2,2c1.48-.49,2-1.48,2-2A2.06,2.06,0,0,0,119.48,94.42Z"/></g><g id="Vector_2" data-name="Vector 2"><path class="cls-1" d="M8.44,112.11c9.82-9.83,27-13.27,40.77,0a29.27,29.27,0,0,1,8.85,23.09l-11.3-.49c.49-5.9-1.48-10.32-5.41-14.25-8.84-8.84-18.67-6.39-25,0-5.9,6.39-8.35,16.21.49,25,9.33,9.34,27.51,4.92,46.67,1,11.3-2.46,22.6-4.92,32.92-4.92l-26-26c-26-26-25.55-68.78,1-95.31C91,.58,120-5.31,145,5l-4.43,10.31A57,57,0,0,0,79.18,28.1c-22.11,22.1-22.6,58-1,79.59l6.39,4.91c-5.41-24.07,1-50.6,19.65-69.27l3.93-3.93L265.38,196.61a97.71,97.71,0,0,1,29,69.76c0,26.53-10.32,50.61-28.5,69.27l-3.93,3.93a99,99,0,0,1-139,0,80.58,80.58,0,0,1-18.18-29L71.81,213.8A12.63,12.63,0,0,1,73.29,202c4.42-6.38,14.24-7.37,19.65-1.47l76.64,76.15c8.35,8.35,23.09,8.35,31.44,0A21.52,21.52,0,0,0,207.41,261,22.72,22.72,0,0,0,201,245.25L189.72,234h-45.2v-11.3h33.9l-27-27H131.75v19.16h-11.3V184.33H140.1L118,162.22l-3.93-3.93c-9.82-9.34-29-4.92-47.65-1-11.3,2.45-22.11,4.91-32.43,4.91-9.82,0-18.17-2.46-25-8.85C-4.34,140.11-1.39,122.42,8.44,112.11ZM112.1,140.6l9.83,9.83,66.81,66.32L229,176.47,108.17,55.61C88,80.66,89,117.51,112.1,140.6Zm171,125.77a15.17,15.17,0,0,0-.49-4.91H218.71a34.28,34.28,0,0,1-5.4,18.18l46.18,46.18C274.72,309.11,283.07,288.48,283.07,266.37ZM85.57,208.89a1.52,1.52,0,0,0-1-.49c-.49,0-1,.49-1.48,1a.93.93,0,0,0,0,1.48L116,307.64A43.36,43.36,0,0,0,120,316l36.36-36.35ZM164.18,287l-38.32,38.32a30.55,30.55,0,0,0,5.4,5.89A85.85,85.85,0,0,0,174,354.8V292.41A24,24,0,0,1,164.18,287Zm21.12,7.86v61.9c2.46,0,4.42.49,6.88.49a86.56,86.56,0,0,0,59.45-23.58L205.94,288C200,291.92,192.67,294.87,185.3,294.87Zm23.58-57.48a32.72,32.72,0,0,1,7.86,12.28h64.85A87.93,87.93,0,0,0,258,205l-20.63-20.63-40.29,40.28Z"/></g></g></g></g></g></svg>