<svg xmlns="http://www.w3.org/2000/svg" viewBox="0 0 294.37 368.07"><defs><style>.cls-1{fill:#f5e2ce;fill-opacity:0.3;}</style></defs><title>shrimp-right</title><g id="Слой_2" data-name="Слой 2"><g id="Слой_1-2" data-name="Слой 1"><g id="Group_94" data-name="Group 94"><g id="Group_95" data-name="Group 95"><g id="Vector_90" data-name="Vector 90"><path class="cls-1" d="M172.44,109.65c1,0,1.47.49,2.45.49a3.69,3.69,0,0,0,2.46-.49,13.63,13.63,0,0,0,10.81-13.27c0-6.38-4.42-11.3-10.81-13.26a8.38,8.38,0,0,0-4.91,0,13.62,13.62,0,0,0-10.81,13.26C161.63,102.77,166.05,107.68,172.44,109.65Zm2.45-15.23c2,.49,2,1.47,2,2s0,1.48-2,2c-1.47-.49-2-1.48-2-2A2.06,2.06,0,0,1,174.89,94.42Z"/></g><g id="Vector_91" data-name="Vector 91"><path class="cls-1" d="M285.93,112.11c-9.83-9.83-27-13.27-40.78,0a29.3,29.3,0,0,0-8.84,23.09l11.3-.49c-.49-5.9,1.47-10.32,5.4-14.25,8.85-8.84,18.67-6.39,25.06,0,5.89,6.39,8.35,16.21-.49,25-9.34,9.34-27.51,4.92-46.67,1-11.3-2.46-22.6-4.92-32.92-4.92l26-26c26-26,25.54-68.78-1-95.31C203.39.58,174.41-5.31,149.35,5l4.42,10.31A57,57,0,0,1,215.18,28.1c22.11,22.1,22.6,58,1,79.59l-6.39,4.91c5.4-24.07-1-50.6-19.65-69.27L186.2,39.4,29,196.61A97.71,97.71,0,0,0,0,266.37C0,292.9,10.32,317,28.49,335.64l3.94,3.93a99,99,0,0,0,139,0,80.58,80.58,0,0,0,18.18-29l32.91-96.79A12.6,12.6,0,0,0,221.08,202c-4.42-6.38-14.25-7.37-19.65-1.47l-76.64,76.15c-8.36,8.35-23.09,8.35-31.45,0A21.51,21.51,0,0,1,87,261a22.71,22.71,0,0,1,6.38-15.72l11.3-11.3h45.2v-11.3h-33.9l27-27h19.66v19.16h11.3V184.33H154.26l22.11-22.11,3.93-3.93c9.83-9.34,29-4.92,47.66-1,11.3,2.45,22.11,4.91,32.42,4.91,9.83,0,18.18-2.46,25.06-8.85C298.7,140.11,295.76,122.42,285.93,112.11ZM182.27,140.6l-9.83,9.83-66.81,66.32L65.34,176.47,186.2,55.61C206.34,80.66,205.36,117.51,182.27,140.6ZM11.3,266.37a15.17,15.17,0,0,1,.49-4.91H75.66a34.19,34.19,0,0,0,5.4,18.18L34.88,325.82C19.65,309.11,11.3,288.48,11.3,266.37Zm197.5-57.48a1.52,1.52,0,0,1,1-.49c.49,0,1,.49,1.47,1a.92.92,0,0,1,0,1.48l-32.91,96.78a44,44,0,0,1-3.93,8.35l-36.36-36.35ZM130.19,287l38.32,38.32a30.87,30.87,0,0,1-5.4,5.89,85.85,85.85,0,0,1-42.74,23.58V292.41A24.11,24.11,0,0,0,130.19,287Zm-21.12,7.86v61.9c-2.46,0-4.43.49-6.88.49a86.54,86.54,0,0,1-59.45-23.58L88.43,288C94.33,291.92,101.7,294.87,109.07,294.87ZM85.48,237.39a33,33,0,0,0-7.86,12.28H12.77A87.94,87.94,0,0,1,36.36,205L57,184.33l40.29,40.28Z"/></g></g></g></g></g></svg>