<svg width="18" height="14" viewBox="0 0 18 14" version="1.1" xmlns="http://www.w3.org/2000/svg" xmlns:xlink="http://www.w3.org/1999/xlink">
<g id="Canvas" fill="none">
<g id="Vector">
<path d="M 16.8 1.56217C 16.1819 1.82769 15.5182 2.00691 14.8203 2.08662C 15.5318 1.67437 16.0785 1.02148 16.3363 0.243692C 15.6699 0.624969 14.9326 0.903185 14.1476 1.05194C 13.5185 0.404631 12.6226 0 11.6306 0C 9.72701 0 8.1847 1.4916 8.1847 3.33198C 8.1847 3.59294 8.21463 3.8478 8.27344 4.09149C 5.40885 3.95238 2.86932 2.62578 1.16894 0.609739C 0.872768 1.1022 0.702626 1.67437 0.702626 2.28512C 0.702626 3.44165 1.31125 4.46109 2.23548 5.05915C 1.67097 5.04138 1.13953 4.89212 0.674794 4.64234C 0.674268 4.65605 0.674268 4.67077 0.674268 4.68397C 0.674268 6.29894 1.86212 7.64585 3.43908 7.95198C 3.15026 8.02763 2.84569 8.06875 2.53113 8.06875C 2.30848 8.06875 2.09317 8.04794 1.88312 8.00935C 2.32108 9.3324 3.59452 10.296 5.10217 10.3234C 3.92326 11.217 2.43713 11.7505 0.822356 11.7505C 0.544036 11.7505 0.269392 11.7348 0 11.7038C 1.52498 12.6481 3.33668 13.2 5.28335 13.2C 11.6227 13.2 15.0902 8.12257 15.0902 3.71885C 15.0902 3.57466 15.086 3.43048 15.0797 3.28731C 15.7534 2.81769 16.3374 2.23131 16.8 1.56217Z" transform="translate(0.930664 0.238281)" fill="#53A6E4"/>
</g>
</g>
</svg>

