<svg width="15" height="181" viewBox="0 0 15 181" version="1.1" xmlns="http://www.w3.org/2000/svg" xmlns:xlink="http://www.w3.org/1999/xlink">
<g id="Canvas" fill="none">
<g id="Group 2">
<g id="Group">
<g id="Vector">
<path d="M 2.53271e-08 5.06541e-08L 14.6597 12.1102L 29.3193 5.06541e-08L 43.979 12.1102L 58.6386 5.06541e-08L 73.5108 12.1102" stroke-width="2" stroke-miterlimit="10" transform="matrix(-4.37114e-08 1 -1 -4.37114e-08 13.4297 1.49219)" stroke="#28304A"/>
</g>
</g>
<g id="Group_2">
<g id="Vector_2">
<path d="M 2.53271e-08 5.06541e-08L 14.6597 12.1102L 29.3193 5.06541e-08L 43.979 12.1102L 58.6386 5.06541e-08L 73.5108 12.1102" stroke-width="2" stroke-miterlimit="10" transform="matrix(-4.37114e-08 1 -1 -4.37114e-08 13.4297 118.609)" stroke="#28304A"/>
</g>
</g>
<g id="Group_3">
<g id="Vector_3">
<path d="M 2.53271e-08 5.06541e-08L 14.6597 12.1102L 29.3193 5.06541e-08L 43.979 12.1102L 58.6386 5.06541e-08L 73.5108 12.1102" stroke-width="2" stroke-miterlimit="10" transform="matrix(-4.37114e-08 1 -1 -4.37114e-08 13.4297 60.2266)" stroke="#28304A"/>
</g>
</g>
</g>
</g>
</svg>

