<svg width="20" height="11" viewBox="0 0 20 11" version="1.1" xmlns="http://www.w3.org/2000/svg" xmlns:xlink="http://www.w3.org/1999/xlink">
<g data-name="Canvas" fill="none">
<g data-name="Group">
<g data-name="Vector">
<path d="M 4.51153 8.11292C 6.68361 10.2695 9.14753 10.1281 9.14753 10.1281L 10.2671 10.1281C 10.2671 10.1281 10.6067 10.0916 10.779 9.91383C 10.9369 9.74969 10.9321 9.44423 10.9321 9.44423C 10.9321 9.44423 10.9082 8.01718 11.6067 7.80289C 12.2908 7.59772 13.1759 9.18435 14.1089 9.79529C 14.8169 10.2558 15.3528 10.1555 15.3528 10.1555L 17.8454 10.1236C 17.8454 10.1236 19.1515 10.046 18.5343 9.07036C 18.4817 8.9883 18.1755 8.34544 16.678 7.02326C 15.1136 5.63724 15.3241 5.86064 17.2091 3.46703C 18.3573 2.00807 18.8166 1.11901 18.6731 0.736031C 18.5343 0.37129 17.6923 0.467035 17.6923 0.467035L 14.8791 0.485272C 14.8791 0.485272 14.6686 0.457916 14.5155 0.544542C 14.3624 0.631168 14.2667 0.831776 14.2667 0.831776C 14.2667 0.831776 13.8218 1.96247 13.2285 2.91992C 11.9751 4.94423 11.4775 5.05365 11.2718 4.92599C 10.7981 4.6342 10.9129 3.7497 10.9129 3.12053C 10.9129 1.15548 11.2239 0.339375 10.3053 0.12509C 9.99914 0.056701 9.77427 0.00654905 8.99443 0.00198978C 7.98973 -0.00712874 7.1429 0.00654904 6.65969 0.229953C 6.33914 0.380409 6.09514 0.713235 6.24345 0.731472C 6.43004 0.754268 6.85106 0.840894 7.07114 1.12813C 7.3582 1.50199 7.34863 2.34089 7.34863 2.34089C 7.34863 2.34089 7.51608 4.65244 6.9611 4.93967C 6.58314 5.13572 6.06165 4.73451 4.94691 2.89712C 4.37279 1.95791 3.9422 0.913842 3.9422 0.913842C 3.9422 0.913842 3.86087 0.717794 3.71255 0.61749C 3.53075 0.489831 3.28196 0.453357 3.28196 0.453357L 0.61232 0.471594C 0.61232 0.471594 0.210438 0.480712 0.0621243 0.649405C -0.0718364 0.790742 0.0525556 1.09621 0.0525556 1.09621C 0.0525556 1.09621 2.1433 5.76034 4.51153 8.11292Z" transform="translate(0.382812 0.757812)" fill="#344E70"/>
</g>
</g>
</g>
</svg>

