<svg width="162" height="55" viewBox="0 0 162 55" version="1.1" xmlns="http://www.w3.org/2000/svg" xmlns:xlink="http://www.w3.org/1999/xlink">
<g id="Canvas" fill="none">
<g id="Group 2">
<g id="Group">
<g id="Group_2">
<g id="Rectangle 2.1">
<path d="M 0 26.7815C 0 11.9905 11.9905 0 26.7815 0L 172.698 0L 172.698 53.563L 26.7815 53.563C 11.9905 53.563 0 41.5725 0 26.7815Z" transform="translate(0 0.769531)" fill="white"/>
</g>
</g>
<g id="Fill 9.1">
<path fill-rule="evenodd" clip-rule="evenodd" d="M 13.7218 9.80614C 13.7051 9.7571 13.6891 9.72464 13.6724 9.67629C 13.623 9.54575 13.5575 9.4159 13.4921 9.30193C 13.3772 9.10647 13.1968 8.911 13.0325 8.76458C 12.8522 8.61815 12.6224 8.47172 12.4093 8.39022C 12.1796 8.29284 11.9004 8.22722 11.6546 8.19476C 11.3921 8.1623 11.0962 8.17887 10.8504 8.22722C 10.5719 8.27626 10.2927 8.37365 10.0469 8.50419C 9.7844 8.63404 9.53792 8.8295 9.32486 9.00839C 9.1111 9.22043 8.89805 9.48082 8.75043 9.72464C 8.58681 10.0016 8.45521 10.3103 8.38976 10.6198C 8.3076 10.9451 8.27488 11.287 8.27488 11.613C 8.2909 11.9708 8.34033 12.3126 8.45521 12.638C 8.5701 12.9799 8.73372 13.3217 8.91476 13.6146C 9.12782 13.9233 9.3736 14.2328 9.6528 14.4607C 9.94802 14.7211 10.2927 14.949 10.6373 15.112C 11.0147 15.2909 11.4081 15.4208 11.8022 15.4864C 12.2283 15.5672 12.6551 15.5838 13.0652 15.5347C 13.5081 15.4864 13.9516 15.3883 14.345 15.2419C 14.7718 15.0789 15.1819 14.8675 15.5426 14.6071C 15.92 14.3308 16.2646 14.0048 16.5598 13.6471C 16.8551 13.2727 17.1176 12.8493 17.2986 12.4259C 17.4949 11.9708 17.6265 11.4824 17.692 11.0107C 17.7574 10.5058 17.7741 9.98503 17.7087 9.49671C 17.6425 8.97593 17.4949 8.45515 17.2986 7.98341C 17.0848 7.47851 16.8063 7.00677 16.4777 6.59996C 16.133 6.16068 15.7396 5.76975 15.2968 5.44443C 14.8373 5.10254 14.329 4.82626 13.804 4.61422C 13.2456 4.40287 12.6718 4.25645 12.0974 4.19152C 11.4903 4.12591 10.8831 4.12591 10.2927 4.22398C 9.66951 4.32137 9.07907 4.48437 8.52066 4.72819C 7.93022 4.98858 7.38852 5.31458 6.91297 5.70482C 6.40469 6.11164 5.96116 6.58338 5.58378 7.10416C 5.19039 7.64152 4.87846 8.22722 4.64869 8.8295C 4.40291 9.46424 4.25529 10.1156 4.18984 10.7828C 4.1237 11.4659 4.14041 12.1662 4.25529 12.8334C 4.37018 13.5331 4.58324 14.2003 4.87846 14.835C 5.19039 15.4864 5.56777 16.1045 6.02731 16.6412C 6.50286 17.211 7.04456 17.6993 7.65102 18.1227C 8.27488 18.562 8.94748 18.9039 9.6528 19.1477C 10.3748 19.4081 11.1296 19.5711 11.9004 19.636C 12.6879 19.7016 13.4753 19.6685 14.2301 19.5221C 15.0176 19.3756 15.7891 19.1318 16.4944 18.7899C 17.2324 18.448 17.9217 17.9929 18.5289 17.488C 19.1688 16.9506 19.7265 16.3325 20.186 15.6653C 20.6616 14.9656 21.0557 14.2169 21.3182 13.435C 21.5967 12.6214 21.777 11.7919 21.8432 10.9451C 21.9086 10.0665 21.8592 9.20386 21.6955 8.35776C 21.5312 7.47851 21.252 6.64899 20.8586 5.85125C 20.4645 5.03762 19.9563 4.28891 19.3651 3.6217C 18.7587 2.92203 18.0694 2.31975 17.3146 1.81486C 16.5271 1.29408 15.6902 0.887261 14.8212 0.578523C 13.9189 0.269094 12.9831 0.0902051 12.048 0.0245896C 11.0802 -0.0403352 10.1123 0.0245896 9.17725 0.204169C 8.20943 0.398943 7.27364 0.708372 6.40469 1.13107C 5.50162 1.57104 4.68141 2.12429 3.94336 2.77492C 3.1886 3.44281 2.516 4.20741 1.95828 5.03762C 1.38386 5.88371 0.94103 6.81131 0.613085 7.77206C 0.284444 8.76458 0.0873997 9.77367 0.02195 10.7987C -0.0434997 11.8568 0.0386618 12.8984 0.251722 13.9233C 0.464781 14.9656 0.826144 15.9747 1.3017 16.9182C 1.79396 17.8789 2.40112 18.7734 3.12315 19.5711C 3.8612 20.3847 4.69812 21.101 5.61651 21.7033C 6.5523 22.3055 7.56955 22.7939 8.61884 23.1351C 9.70224 23.4935 10.8177 23.689 11.9331 23.7539C 12.1796 23.7698 12.4093 23.7698 12.6551 23.7698C 13.5575 23.7698 14.4759 23.6724 15.3462 23.4935C 16.4944 23.249 17.5938 22.8747 18.6104 22.3539C 19.661 21.8172 20.6449 21.1659 21.4985 20.3847L 20.1039 18.8549C 19.3651 19.5055 18.5449 20.0753 17.6593 20.5146C 16.7896 20.9546 15.8705 21.2799 14.9027 21.4753C 13.9676 21.6708 12.9998 21.7516 12.032 21.6867C 11.0962 21.6377 10.1618 21.4588 9.2427 21.1659C 8.35635 20.8731 7.52012 20.4828 6.73263 19.962C 5.97787 19.4737 5.27255 18.8714 4.64869 18.1877C 4.05825 17.5205 3.54997 16.7876 3.13916 15.974C 2.74577 15.1928 2.45055 14.3633 2.27022 13.4841C 2.08919 12.638 2.04045 11.7753 2.08919 10.9126C 2.13862 10.0665 2.30294 9.23632 2.58145 8.42269C 2.84395 7.64152 3.22132 6.87623 3.68086 6.17656C 4.14041 5.49278 4.68141 4.87461 5.30527 4.33795C 5.91242 3.81717 6.58502 3.36131 7.32307 3.00284C 8.0284 2.66164 8.78316 2.40056 9.57065 2.23825C 10.3254 2.09182 11.1129 2.04278 11.9004 2.09182C 12.6551 2.14017 13.4099 2.28729 14.1479 2.5311C 14.8533 2.77492 15.5266 3.10092 16.1664 3.52362C 16.7729 3.93113 17.3313 4.41876 17.8069 4.972C 18.2824 5.50936 18.6765 6.11164 18.9877 6.76296C 19.2997 7.38113 19.5127 8.04833 19.6443 8.748C 19.7759 9.4159 19.8086 10.099 19.7592 10.7987C 19.7105 11.4659 19.5789 12.1172 19.3491 12.7519C 19.136 13.3701 18.8408 13.9565 18.4634 14.4932C 18.1021 15.0139 17.676 15.5023 17.167 15.9091C 16.6914 16.3159 16.1664 16.6578 15.592 16.9182C 15.0503 17.1786 14.4599 17.3574 13.8367 17.4714C 13.2456 17.5695 12.6551 17.602 12.048 17.5529C 11.4736 17.5046 10.8998 17.374 10.3421 17.1786C 9.81712 16.9838 9.30815 16.7227 8.83259 16.3974C 8.38976 16.088 7.97896 15.7136 7.6183 15.2909C 7.27364 14.8841 6.99513 14.4282 6.76536 13.9399C 6.5523 13.4682 6.38798 12.9799 6.30582 12.4591C 6.22366 11.9708 6.20764 11.4659 6.25638 10.9451C 6.30582 10.4568 6.4207 9.98503 6.58502 9.51328C 6.74865 9.07332 6.97842 8.65061 7.25762 8.25968C 7.52012 7.88533 7.84806 7.56001 8.20943 7.26716C 8.55339 6.9902 8.93077 6.76296 9.35759 6.56749C 9.75098 6.3886 10.1611 6.27464 10.6039 6.20902C 11.0147 6.1441 11.4248 6.1441 11.8509 6.19314C 12.245 6.24149 12.6384 6.33957 13.0158 6.48599C 13.3605 6.61584 13.7218 6.81131 14.0331 7.05581C 14.329 7.26716 14.5915 7.54413 14.8212 7.83698C 15.0343 8.11326 15.2146 8.42268 15.3622 8.748C 15.4931 9.05743 15.576 9.39932 15.6247 9.72464C 15.6575 10.0341 15.6575 10.376 15.6247 10.7013C 15.576 10.9941 15.4931 11.3036 15.3783 11.5964C 15.2641 11.8568 15.0998 12.1172 14.9194 12.3451C 14.7551 12.5565 14.542 12.7519 14.3123 12.9308C 14.0992 13.0772 13.8694 13.2078 13.6069 13.3052C 13.3772 13.3867 13.1307 13.4516 12.8682 13.4682C 12.6384 13.4841 12.3926 13.4841 12.1629 13.435C 11.9498 13.4032 11.7361 13.3217 11.5397 13.2237C 11.3587 13.1429 11.1783 13.0123 11.0307 12.8825C 10.8998 12.7685 10.7682 12.6055 10.6533 12.4591C 10.5552 12.3285 10.4897 12.1496 10.4236 11.9866C 10.3748 11.8402 10.3581 11.6772 10.3421 11.5149C 10.3421 11.3851 10.3581 11.2221 10.3909 11.0915C 10.4236 10.9775 10.473 10.8477 10.5385 10.7337C 10.5879 10.6522 10.6701 10.5383 10.7522 10.4733C 10.8177 10.4084 10.9158 10.3428 10.998 10.3103C 11.0474 10.2779 11.1296 10.262 11.2118 10.2295C 11.2605 10.8802 11.8022 11.4009 12.4908 11.4009C 13.1968 11.4009 13.7706 10.8311 13.7706 10.1315C 13.7706 10.0506 13.7546 9.9201 13.7218 9.80614Z" transform="translate(19.8613 15.4609)" fill="#F7931E"/>
</g>
</g>
<g id="Page 1.1">
<g id="Artboard">
<g id="Page 1">
<g id="Group_3">
<g id="Fill 1">
<path fill-rule="evenodd" clip-rule="evenodd" d="M 36.1499 11.8011C 34.9078 11.8011 33.9357 11.3134 33.2168 10.3369C 32.5139 9.36102 32.1545 7.88244 32.1545 5.90053C 32.1545 4.99869 32.2447 4.18535 32.4244 3.46049C 32.6041 2.73626 32.8581 2.11495 33.2022 1.5972C 33.5464 1.0945 33.9801 0.695361 34.4887 0.414204C 34.998 0.133675 35.5962 -1.59922e-07 36.2693 -1.59922e-07C 36.7932 -1.59922e-07 37.2123 0.0596202 37.5412 0.177606C 37.8701 0.296219 38.1546 0.429266 38.4245 0.59181L 38.1698 2.2775C 37.9304 2.05596 37.6314 1.86392 37.3018 1.70075C 36.9729 1.5382 36.6287 1.44972 36.2547 1.44972C 35.6108 1.44972 35.0723 1.8043 34.6684 2.52916C 34.2493 3.25339 34.0398 4.33346 34.0398 5.79698C 34.0398 7.2467 34.2195 8.37007 34.5637 9.15392C 34.9078 9.93777 35.447 10.3369 36.195 10.3369C 36.6433 10.3369 37.0179 10.2629 37.3469 10.1154C 37.6758 9.96727 37.9457 9.80472 38.1546 9.61268L 38.5737 10.9287C 38.2594 11.1798 37.9152 11.4019 37.5412 11.55C 37.1672 11.6975 36.6884 11.8011 36.1499 11.8011ZM 26.9176 5.93065L 26.9176 11.6536L 25.1225 11.6536L 25.1225 0.177606L 26.9176 0.177606L 26.9176 5.48633L 29.7008 0.177606L 31.5265 0.177606L 28.6537 5.57544L 31.9449 11.6536L 29.9853 11.6536L 26.9176 5.93065ZM 20.08 1.46415C 19.5262 1.46415 19.137 1.7748 18.8976 2.38105C 18.6734 3.00235 18.5236 3.8157 18.4639 4.85059L 21.4414 4.85059C 21.4414 4.36233 21.4116 3.91925 21.3665 3.48999C 21.3214 3.07641 21.2471 2.70676 21.1423 2.41054C 21.0375 2.09989 20.9029 1.87835 20.7232 1.70075C 20.5588 1.55264 20.334 1.46415 20.08 1.46415ZM 23.2969 10.8697C 22.9229 11.1653 22.5038 11.3869 22.025 11.55C 21.5462 11.7126 21.0223 11.8011 20.4387 11.8011C 19.2418 11.8011 18.2994 11.3429 17.6111 10.426C 16.9227 9.50913 16.5786 8.16359 16.5786 6.38879C 16.5786 5.45683 16.6383 4.61399 16.7729 3.8452C 16.9075 3.07641 17.1171 2.39611 17.4015 1.8338C 17.686 1.27211 18.0448 0.813974 18.4937 0.503321C 18.9427 0.177606 19.4665 0.030124 20.08 0.030124C 20.5587 0.030124 20.9925 0.118613 21.3963 0.310653C 21.8002 0.503321 22.1297 0.813974 22.4142 1.22755C 22.6835 1.65619 22.9076 2.20407 23.0575 2.88437C 23.2073 3.56404 23.2816 4.37739 23.2816 5.35391L 23.2816 6.3298L 18.4493 6.3298C 18.4493 7.63077 18.6283 8.62173 18.9878 9.28697C 19.3465 9.95283 19.885 10.293 20.6184 10.293C 21.1271 10.293 21.576 10.2039 21.9653 10.0263C 22.3539 9.84928 22.6682 9.68611 22.893 9.50913L 23.2969 10.8697ZM 12.7927 1.62732L 10.788 1.62732L 10.788 1.8338C 10.788 2.44004 10.7728 3.10591 10.7582 3.8157C 10.7283 4.54056 10.6832 5.26479 10.6083 6.00408C 10.5334 6.74337 10.4292 7.48329 10.2794 8.19246C 10.1448 8.91732 9.94981 9.56812 9.71041 10.1744L 12.7927 10.1744L 12.7927 1.62732ZM 15.4864 13.901L 13.8703 13.901L 13.8703 11.653L 8.88746 11.653L 8.88746 13.901L 7.27138 13.901L 7.27138 10.1894L 7.9902 10.1894C 8.2442 9.58256 8.45375 8.91732 8.61822 8.17803C 8.76808 7.43874 8.88746 6.68438 8.97763 5.90053C 9.06716 5.11731 9.11224 4.31839 9.14209 3.50505C 9.17194 2.6917 9.17194 1.90785 9.17194 1.1535L 9.17194 0.177606L 14.5586 0.177606L 14.5586 10.2039L 15.4864 10.2039L 15.4864 13.901ZM 6.25411 0.163171L 6.25411 11.6385L 4.47357 11.6385L 4.47357 6.49234L 1.79514 6.49234L 1.79514 11.6385L 1.02707e-07 11.6385L 1.02707e-07 0.163171L 1.79514 0.163171L 1.79514 5.04263L 4.47357 5.04263L 4.47357 0.163171L 6.25411 0.163171Z" transform="translate(73.4473 24.4414)" fill="#010101"/>
</g>
<g id="Fill 3">
<path fill-rule="evenodd" clip-rule="evenodd" d="M 1.94562e-06 -7.39757e-08L 6.02995 -7.39757e-08L 6.02995 0.916898L 1.15189 0.916898L 1.15189 7.48267L 5.34162 7.48267L 5.34162 8.39956L 1.15189 8.39956L 1.15189 15.3946L 6.10488 15.3946L 6.10488 16.3115L 1.94562e-06 16.3115L 1.94562e-06 -7.39757e-08Z" transform="translate(116.57 19.7969)" fill="#010101"/>
</g>
<g id="Fill 5">
<path fill-rule="evenodd" clip-rule="evenodd" d="M 2.81305 6.74337C 2.70827 7.68977 2.57365 8.47362 2.40919 9.10936C 2.24472 9.7451 2.01993 10.2334 1.70561 10.5735L 6.13473 10.5735L 6.13473 0.916898L 3.18706 0.916898C 3.17246 1.5382 3.14261 2.17395 3.11277 2.83918C 3.08229 3.41593 3.03784 4.03724 2.99275 4.71691C 2.94767 5.39721 2.88798 6.07751 2.81305 6.74337ZM 7.30186 11.4904L 0.987423 11.4904L 0.853439 13.7384L 3.2091e-06 13.7384L 3.2091e-06 10.5735L 0.478792 10.5735C 0.838201 10.3808 1.12205 9.92271 1.34684 9.18341C 1.57099 8.45856 1.73609 7.55672 1.87071 6.46222C 1.94501 5.75242 2.00533 5.01313 2.04978 4.25877C 2.09486 3.50442 2.12534 2.80969 2.15455 2.17395C 2.18503 1.43465 2.21488 0.709795 2.22949 -2.71963e-07L 7.25741 -2.71963e-07L 7.25741 10.5735L 8.31913 10.5735L 8.31913 13.7384L 7.46696 13.7384L 7.30186 11.4904Z" transform="translate(123.664 24.6055)" fill="#010101"/>
</g>
<g id="Fill 7">
<path fill-rule="evenodd" clip-rule="evenodd" d="M 2.87274 11.0172C 3.41185 11.0172 3.86016 10.7957 4.24941 10.3664C 4.62343 9.92271 4.92315 9.40558 5.13206 8.78427L 5.13206 5.6495L 3.89065 5.6495C 2.91783 5.6495 2.21424 5.87103 1.75069 6.3298C 1.28651 6.78793 1.06235 7.49773 1.06235 8.50374C 1.06235 9.31709 1.22682 9.93777 1.55638 10.3815C 1.87007 10.8101 2.31902 11.0172 2.87274 11.0172ZM 5.44639 11.7126C 5.40131 11.5645 5.35685 11.3724 5.29653 11.1352C 5.23684 10.8992 5.20699 10.5735 5.17715 10.1744C 4.90791 10.7216 4.5485 11.1503 4.14464 11.4753C 3.72554 11.8011 3.23152 11.9492 2.64795 11.9492C 1.87008 11.9492 1.22682 11.653 0.73279 11.0762C 0.239395 10.485 -4.27881e-06 9.67167 -4.27881e-06 8.62173C -4.27881e-06 7.39418 0.328931 6.46284 0.987425 5.82648C 1.64592 5.19073 2.6035 4.88008 3.86016 4.88008L 5.13206 4.88008L 5.13206 3.43099C 5.13206 2.54422 4.9676 1.90785 4.65327 1.50871C 4.33958 1.10957 3.84555 0.916898 3.2023 0.916898C 2.70827 0.916898 2.24408 1.03551 1.82562 1.25705C 1.39128 1.47921 1.04712 1.78924 0.763272 2.18901L 0.464182 1.16856C 0.688337 0.857905 1.04711 0.59181 1.5113 0.355212C 1.97485 0.118613 2.5438 2.6909e-07 3.2023 2.6909e-07C 4.17448 2.6909e-07 4.90791 0.266723 5.43115 0.813347C 5.94042 1.34616 6.20966 2.18901 6.20966 3.32744L 6.20966 9.58256C 6.20966 9.98233 6.2395 10.3815 6.28459 10.7806C 6.32904 11.1798 6.38936 11.4904 6.46366 11.6975L 5.44639 11.6975L 5.44639 11.7126Z" transform="translate(133.121 24.3828)" fill="#010101"/>
</g>
<g id="Fill 11">
<path fill-rule="evenodd" clip-rule="evenodd" d="M 6.34428 1.47858L 5.40131 1.47858C 5.04253 1.47858 4.69836 1.53758 4.36943 1.67062C 4.02526 1.8043 3.72554 2.01077 3.47154 2.29193C 3.21691 2.57309 2.99275 2.94273 2.84289 3.41593C 2.67843 3.87407 2.6035 4.45081 2.6035 5.14618C 2.6035 5.79635 2.67843 6.3436 2.82765 6.7873C 2.97751 7.231 3.17182 7.58559 3.42646 7.86675C 3.68109 8.1479 3.98018 8.34057 4.32435 8.44349C 4.66852 8.56211 5.02729 8.6211 5.41655 8.6211L 6.35889 8.6211L 6.35889 1.47858L 6.34428 1.47858ZM 4.86283 10.0702L 2.04978 16.3109L 0 16.3109L 3.08229 9.64155C 2.3641 9.2719 1.78054 8.73971 1.33159 8.02929C 0.882649 7.32012 0.658495 6.35866 0.658495 5.14618C 0.658495 4.30271 0.777875 3.54898 1.03251 2.89818C 1.28714 2.24737 1.63068 1.71518 2.06502 1.28654C 2.49872 0.857278 3.00736 0.547252 3.59092 0.325088C 4.17449 0.117985 4.7879 7.44545e-08 5.43179 7.44545e-08L 8.10958 7.44545e-08L 8.10958 16.2814L 6.32904 16.2814L 6.32904 10.0407L 4.86283 10.0407L 4.86283 10.0702Z" transform="translate(63.0352 19.7852)" fill="#010101"/>
</g>
</g>
</g>
</g>
</g>
</g>
</g>
</svg>

